<svg width="60" height="60" viewBox="0 0 60 60" fill="none" xmlns="http://www.w3.org/2000/svg">
<path d="M43.825 19.425C43.65 19.4 43.475 19.4 43.3 19.425C39.425 19.3 36.35 16.125 36.35 12.225C36.35 8.25 39.575 5 43.575 5C47.55 5 50.8 8.225 50.8 12.225C50.775 16.125 47.7 19.3 43.825 19.425Z" fill="#5F4BD9"/>
<path d="M51.975 36.75C49.175 38.625 45.25 39.325 41.625 38.85C42.575 36.8 43.075 34.525 43.1 32.125C43.1 29.625 42.55 27.25 41.5 25.175C45.2 24.675 49.125 25.375 51.95 27.25C55.9 29.85 55.9 34.125 51.975 36.75Z" fill="#5F4BD9"/>
<path d="M16.1 19.425C16.275 19.4 16.45 19.4 16.625 19.425C20.5 19.3 23.575 16.125 23.575 12.225C23.575 8.225 20.35 5 16.35 5C12.375 5 9.14999 8.225 9.14999 12.225C9.14999 16.125 12.225 19.3 16.1 19.425Z" fill="#5F4BD9"/>
<path d="M16.375 32.125C16.375 34.55 16.9 36.85 17.85 38.925C14.325 39.3 10.65 38.55 7.94999 36.775C3.99999 34.15 3.99999 29.875 7.94999 27.25C10.625 25.45 14.4 24.725 17.95 25.125C16.925 27.225 16.375 29.6 16.375 32.125Z" fill="#5F4BD9"/>
<path d="M30.3 39.675C30.1 39.65 29.875 39.65 29.65 39.675C25.05 39.525 21.375 35.75 21.375 31.1C21.4 26.35 25.225 22.5 30 22.5C34.75 22.5 38.6 26.35 38.6 31.1C38.575 35.75 34.925 39.525 30.3 39.675Z" fill="#5F4BD9"/>
<path d="M22.175 44.8501C18.4 47.3751 18.4 51.5251 22.175 54.0251C26.475 56.9001 33.525 56.9001 37.825 54.0251C41.6 51.5001 41.6 47.3501 37.825 44.8501C33.55 41.9751 26.5 41.9751 22.175 44.8501Z" fill="#5F4BD9"/>
</svg>
