<svg width="40" height="90" viewBox="0 0 40 90" fill="none" xmlns="http://www.w3.org/2000/svg">
<path d="M0.408 8.71999L-0.591264 5.89131L-3.25769 6.83325L-2.47472 9.55061L0.408 8.71999ZM23.96 0.399994V-2.60001H23.4457L22.9607 -2.42869L23.96 0.399994ZM39.32 0.399994H42.32V-2.60001H39.32V0.399994ZM39.32 90V93H42.32V90H39.32ZM21.656 90H18.656V93H21.656V90ZM21.656 19.088H24.656V15.1315L20.8463 16.1993L21.656 19.088ZM4.76 23.824L1.87728 24.6546L2.7019 27.5165L5.5697 26.7127L4.76 23.824ZM1.40726 11.5487L24.9593 3.22868L22.9607 -2.42869L-0.591264 5.89131L1.40726 11.5487ZM23.96 3.39999H39.32V-2.60001H23.96V3.39999ZM36.32 0.399994V90H42.32V0.399994H36.32ZM39.32 87H21.656V93H39.32V87ZM24.656 90V19.088H18.656V90H24.656ZM20.8463 16.1993L3.9503 20.9353L5.5697 26.7127L22.4657 21.9767L20.8463 16.1993ZM7.64272 22.9934L3.29072 7.88938L-2.47472 9.55061L1.87728 24.6546L7.64272 22.9934Z" fill="url(#paint0_linear_19_249)"/>
<defs>
<linearGradient id="paint0_linear_19_249" x1="24" y1="-34" x2="24" y2="145" gradientUnits="userSpaceOnUse">
<stop stop-color="#5F4BD9"/>
<stop offset="1" stop-color="#676666" stop-opacity="0"/>
</linearGradient>
</defs>
</svg>
