<svg width="62" height="92" viewBox="0 0 62 92" fill="none" xmlns="http://www.w3.org/2000/svg">
<path d="M61.36 92V95H64.36V92H61.36ZM1.456 92H-1.544V95H1.456V92ZM1.456 78.816L-0.695713 76.7255L-1.544 77.5986V78.816H1.456ZM32.048 47.328L34.1997 49.4185L34.2163 49.4014L34.2326 49.3841L32.048 47.328ZM38.96 20.96L36.8387 23.0813L36.8595 23.1021L36.8807 23.1225L38.96 20.96ZM15.664 28.256L14.1468 30.8441L17.0259 32.5318L18.3985 29.4899L15.664 28.256ZM0.816 19.552L-1.91904 18.3193L-3.02667 20.7769L-0.701159 22.1401L0.816 19.552ZM12.72 5.6L14.3063 8.14636L14.3174 8.13938L12.72 5.6ZM51.248 8.28799L49.2631 10.5375L49.2725 10.5458L49.2819 10.554L51.248 8.28799ZM27.696 74.976L25.5747 72.8547L20.4534 77.976H27.696V74.976ZM61.36 74.976H64.36V71.976H61.36V74.976ZM61.36 89H1.456V95H61.36V89ZM4.456 92V78.816H-1.544V92H4.456ZM3.60771 80.9065L34.1997 49.4185L29.8963 45.2375L-0.695713 76.7255L3.60771 80.9065ZM34.2326 49.3841C37.7425 45.6548 40.4695 42.1571 42.3327 38.8964C44.1858 35.6535 45.288 32.4646 45.288 29.408H39.288C39.288 31.0448 38.6835 33.1891 37.1233 35.9196C35.5732 38.6323 33.1802 41.7479 29.8634 45.2719L34.2326 49.3841ZM45.288 29.408C45.288 25.2154 43.9288 21.5759 41.0393 18.7975L36.8807 23.1225C38.4285 24.6108 39.288 26.6032 39.288 29.408H45.288ZM41.0813 18.8387C38.3097 16.067 34.7351 14.76 30.64 14.76V20.76C33.3716 20.76 35.3437 21.5863 36.8387 23.0813L41.0813 18.8387ZM30.64 14.76C26.6875 14.76 23.1143 15.7826 20.0542 17.9273C17.0161 20.0565 14.673 23.1581 12.9295 27.0221L18.3985 29.4899C19.8123 26.3565 21.5439 24.2101 23.4978 22.8407C25.4297 21.4867 27.7658 20.76 30.64 20.76V14.76ZM17.1812 25.6679L2.33316 16.9639L-0.701159 22.1401L14.1468 30.8441L17.1812 25.6679ZM3.55104 20.7847C6.05879 15.2206 9.64798 11.0482 14.3062 8.14634L11.1338 3.05366C5.38136 6.63712 1.03455 11.766 -1.91904 18.3193L3.55104 20.7847ZM14.3174 8.13938C19.111 5.12401 24.4415 3.60799 30.384 3.60799V-2.39201C23.3558 -2.39201 16.9103 -0.580019 11.1226 3.06062L14.3174 8.13938ZM30.384 3.60799C37.7977 3.60799 44.0364 5.92569 49.2631 10.5375L53.2329 6.03848C46.8543 0.410301 39.1836 -2.39201 30.384 -2.39201V3.60799ZM49.2819 10.554C54.3434 14.9455 56.952 20.9003 56.952 28.768H62.952C62.952 19.3984 59.758 11.6998 53.2141 6.02203L49.2819 10.554ZM56.952 28.768C56.952 36.9555 52.6356 45.7938 43.1107 55.3187L47.3533 59.5613C57.4551 49.4595 62.952 39.1831 62.952 28.768H56.952ZM43.1107 55.3187L25.5747 72.8547L29.8173 77.0973L47.3533 59.5613L43.1107 55.3187ZM27.696 77.976H61.36V71.976H27.696V77.976ZM58.36 74.976V92H64.36V74.976H58.36Z" fill="url(#paint0_linear_19_259)"/>
<defs>
<linearGradient id="paint0_linear_19_259" x1="32" y1="-32" x2="32" y2="147" gradientUnits="userSpaceOnUse">
<stop stop-color="#5F4BD9"/>
<stop offset="1" stop-color="#676666" stop-opacity="0"/>
</linearGradient>
</defs>
</svg>
