<svg width="64" height="92" viewBox="0 0 64 92" fill="none" xmlns="http://www.w3.org/2000/svg">
<path d="M59.952 14.992L62.3283 16.8232L62.952 16.0138V14.992H59.952ZM43.184 36.752L40.8077 34.9208L38.1148 38.4154L42.3546 39.6351L43.184 36.752ZM58.032 46.224L55.7023 48.1141L55.713 48.1273L55.7238 48.1403L58.032 46.224ZM54.32 83.984L52.3964 81.6819L52.3806 81.6951L52.365 81.7085L54.32 83.984ZM12.848 86.928L11.2869 89.4898L11.3016 89.4988L11.3164 89.5076L12.848 86.928ZM0.944 72.848L-0.553896 70.2487L-2.82396 71.5569L-1.83326 73.9824L0.944 72.848ZM16.048 64.144L18.9146 63.2593L17.8062 59.6683L14.5501 61.5447L16.048 64.144ZM42.16 71.312L44.1188 73.5842L44.1248 73.5791L42.16 71.312ZM42.16 53.52L40.1574 55.7537L40.1762 55.7705L40.1952 55.7871L42.16 53.52ZM27.824 50.192L25.3231 51.8489L26.2129 53.192H27.824V50.192ZM21.04 39.952L18.6592 38.1267L17.3572 39.8249L18.5391 41.6089L21.04 39.952ZM38.704 16.912L41.0848 18.7373L44.7842 13.912H38.704V16.912ZM3.632 16.912H0.632V19.912H3.632V16.912ZM3.632 0.399994V-2.60001H0.632V0.399994H3.632ZM59.952 0.399994H62.952V-2.60001H59.952V0.399994ZM57.5757 13.1608L40.8077 34.9208L45.5603 38.5832L62.3283 16.8232L57.5757 13.1608ZM42.3546 39.6351C48.0636 41.2774 52.4629 44.1214 55.7023 48.1141L60.3617 44.3339C56.2624 39.2813 50.7631 35.8106 44.0134 33.8689L42.3546 39.6351ZM55.7238 48.1403C59.0033 52.0907 60.664 56.7774 60.664 62.352H66.664C66.664 55.4679 64.57 49.4027 60.3402 44.3077L55.7238 48.1403ZM60.664 62.352C60.664 70.8139 57.8464 77.1278 52.3964 81.6819L56.2437 86.2861C63.2523 80.4296 66.664 72.3221 66.664 62.352H60.664ZM52.365 81.7085C46.9225 86.3844 40.0932 88.792 31.664 88.792V94.792C41.3255 94.792 49.6001 91.9943 56.275 86.2595L52.365 81.7085ZM31.664 88.792C25.0567 88.792 19.3256 87.2851 14.3796 84.3484L11.3164 89.5076C17.293 93.0562 24.1059 94.792 31.664 94.792V88.792ZM14.4091 84.3662C9.50884 81.3801 5.95957 77.1936 3.72126 71.7136L-1.83326 73.9824C0.877766 80.6197 5.2645 85.8199 11.2869 89.4898L14.4091 84.3662ZM2.4419 75.4473L17.5459 66.7433L14.5501 61.5447L-0.553896 70.2487L2.4419 75.4473ZM13.1814 65.0287C14.4184 69.0364 16.6245 72.2495 19.8926 74.4193C23.1235 76.5644 27.1232 77.512 31.664 77.512V71.512C27.9274 71.512 25.1859 70.7316 23.2114 69.4207C21.2742 68.1345 19.811 66.1636 18.9146 63.2593L13.1814 65.0287ZM31.664 77.512C36.6302 77.512 40.9219 76.3402 44.1188 73.5842L40.2012 69.0398C38.4488 70.5505 35.7432 71.512 31.664 71.512V77.512ZM44.1248 73.5791C47.4182 70.7248 49 66.8709 49 62.352H43C43 65.3424 42.0218 67.4619 40.1952 69.0449L44.1248 73.5791ZM49 62.352C49 57.8944 47.4016 54.0929 44.1248 51.2529L40.1952 55.7871C42.0384 57.3845 43 59.471 43 62.352H49ZM44.1626 51.2863C40.9657 48.4201 36.6567 47.192 31.664 47.192V53.192C35.7166 53.192 38.405 54.1826 40.1574 55.7537L44.1626 51.2863ZM31.664 47.192H27.824V53.192H31.664V47.192ZM30.325 48.5351L23.541 38.2951L18.5391 41.6089L25.3231 51.8489L30.325 48.5351ZM23.4208 41.7773L41.0848 18.7373L36.3232 15.0867L18.6592 38.1267L23.4208 41.7773ZM38.704 13.912H3.632V19.912H38.704V13.912ZM6.632 16.912V0.399994H0.632V16.912H6.632ZM3.632 3.39999H59.952V-2.60001H3.632V3.39999ZM56.952 0.399994V14.992H62.952V0.399994H56.952Z" fill="url(#paint0_linear_19_260)"/>
<defs>
<linearGradient id="paint0_linear_19_260" x1="33" y1="-34" x2="33" y2="145" gradientUnits="userSpaceOnUse">
<stop stop-color="#5F4BD9"/>
<stop offset="1" stop-color="#676666" stop-opacity="0"/>
</linearGradient>
</defs>
</svg>
