<svg width="236" height="355" viewBox="0 0 236 355" fill="none" xmlns="http://www.w3.org/2000/svg">
<path d="M133.587 304.809C95.4197 304.809 63.6133 292.581 38.1678 268.126C12.7226 243.416 0 211.7 0 172.98C0 134.258 12.7226 102.671 38.1678 78.2155C63.6133 53.5054 95.4197 41.1504 133.587 41.1504C177.862 41.1504 211.958 60.2561 235.877 98.4673L197.71 117.955C191.348 107.001 182.315 98.0854 170.61 91.2074C159.16 84.3293 146.819 80.8903 133.587 80.8903C108.397 80.8903 87.4046 89.5517 70.6105 106.874C54.0711 124.196 45.8014 146.232 45.8014 172.98C45.8014 199.728 54.0711 221.763 70.6105 239.085C87.4046 256.408 108.397 265.068 133.587 265.068C147.073 265.068 159.541 261.629 170.992 254.752C182.442 247.874 191.348 238.958 197.71 228.003L235.877 247.491C211.45 285.703 177.353 304.809 133.587 304.809Z" fill="white"/>
<path fill-rule="evenodd" clip-rule="evenodd" d="M115.021 109.175V1.78948e-06L155.915 0V109.175H115.021Z" fill="white"/>
<path fill-rule="evenodd" clip-rule="evenodd" d="M115.021 354.819V245.644H155.915V354.819H115.021Z" fill="white"/>
</svg>
