<svg width="605" height="124" viewBox="0 0 605 124" fill="none" xmlns="http://www.w3.org/2000/svg">
<path d="M60.8 19H75V89H61.3V43.6L41.6 76.1H40L20.3 43.7V89H6.5V19H20.7L40.8 52.1L60.8 19ZM114.143 89H88.043V19H101.843V42H114.143C120.81 42 126.476 44.2667 131.143 48.8C135.743 53.3333 138.043 58.9 138.043 65.5C138.043 72.1 135.743 77.6667 131.143 82.2C126.476 86.7333 120.81 89 114.143 89ZM158.143 89H144.443V19H158.143V89ZM101.843 54.9V76.1H114.143C117.076 76.1 119.51 75.1 121.443 73.1C123.376 71.1 124.343 68.5667 124.343 65.5C124.343 62.4333 123.376 59.9 121.443 57.9C119.51 55.9 117.076 54.9 114.143 54.9H101.843Z" fill="#5F4BD9"/>
<path d="M198.948 53L225.848 89H209.948L184.948 56.2V89H171.148V19H184.948V49.9L208.948 19H224.848L198.948 53ZM285.615 79.9C278.548 86.9 269.948 90.4 259.815 90.4C249.682 90.4 241.082 86.9 234.015 79.9C227.015 72.7667 223.515 64.1333 223.515 54C223.515 43.8 227.015 35.2 234.015 28.2C241.082 21.1333 249.682 17.6 259.815 17.6C269.948 17.6 278.548 21.1333 285.615 28.2C292.682 35.2 296.215 43.8 296.215 54C296.215 64.2 292.682 72.8333 285.615 79.9ZM243.715 70.5C247.982 74.7667 253.348 76.9 259.815 76.9C266.282 76.9 271.648 74.7667 275.915 70.5C280.248 66.1667 282.415 60.6667 282.415 54C282.415 47.3333 280.248 41.8333 275.915 37.5C271.582 33.1667 266.215 31 259.815 31C253.415 31 248.048 33.1667 243.715 37.5C239.382 41.8333 237.215 47.3333 237.215 54C237.215 60.6667 239.382 66.1667 243.715 70.5ZM339.114 90.4C328.647 90.4 319.947 86.9 313.014 79.9C306.147 72.9667 302.714 64.3333 302.714 54C302.714 43.6 306.147 34.9667 313.014 28.1C319.947 21.1 328.647 17.6 339.114 17.6C345.447 17.6 351.281 19.1 356.614 22.1C362.014 25.0333 366.214 29.0333 369.214 34.1L357.314 41C355.581 37.8667 353.114 35.4333 349.914 33.7C346.714 31.9 343.114 31 339.114 31C332.314 31 326.814 33.1333 322.614 37.4C318.481 41.7333 316.414 47.2667 316.414 54C316.414 60.6667 318.481 66.1667 322.614 70.5C326.814 74.7667 332.314 76.9 339.114 76.9C343.114 76.9 346.714 76.0333 349.914 74.3C353.181 72.5 355.647 70.0667 357.314 67L369.214 73.9C366.214 78.9667 362.014 83 356.614 86C351.281 88.9333 345.447 90.4 339.114 90.4ZM431.991 19H446.191V89H432.491V43.6L412.791 76.1H411.191L391.491 43.7V89H377.691V19H391.891L411.991 52.1L431.991 19ZM518.134 79.9C511.068 86.9 502.468 90.4 492.334 90.4C482.201 90.4 473.601 86.9 466.534 79.9C459.534 72.7667 456.034 64.1333 456.034 54C456.034 43.8 459.534 35.2 466.534 28.2C473.601 21.1333 482.201 17.6 492.334 17.6C502.468 17.6 511.068 21.1333 518.134 28.2C525.201 35.2 528.734 43.8 528.734 54C528.734 64.2 525.201 72.8333 518.134 79.9ZM476.234 70.5C480.501 74.7667 485.868 76.9 492.334 76.9C498.801 76.9 504.168 74.7667 508.434 70.5C512.768 66.1667 514.934 60.6667 514.934 54C514.934 47.3333 512.768 41.8333 508.434 37.5C504.101 33.1667 498.734 31 492.334 31C485.934 31 480.568 33.1667 476.234 37.5C471.901 41.8333 469.734 47.3333 469.734 54C469.734 60.6667 471.901 66.1667 476.234 70.5ZM571.634 90.4C561.167 90.4 552.467 86.9 545.534 79.9C538.667 72.9667 535.234 64.3333 535.234 54C535.234 43.6 538.667 34.9667 545.534 28.1C552.467 21.1 561.167 17.6 571.634 17.6C577.967 17.6 583.8 19.1 589.134 22.1C594.534 25.0333 598.734 29.0333 601.734 34.1L589.834 41C588.1 37.8667 585.634 35.4333 582.434 33.7C579.234 31.9 575.634 31 571.634 31C564.834 31 559.334 33.1333 555.134 37.4C551 41.7333 548.934 47.2667 548.934 54C548.934 60.6667 551 66.1667 555.134 70.5C559.334 74.7667 564.834 76.9 571.634 76.9C575.634 76.9 579.234 76.0333 582.434 74.3C585.7 72.5 588.167 70.0667 589.834 67L601.734 73.9C598.734 78.9667 594.534 83 589.134 86C583.8 88.9333 577.967 90.4 571.634 90.4Z" fill="white"/>
</svg>
