<svg width="138" height="19" viewBox="0 0 138 19" fill="none" xmlns="http://www.w3.org/2000/svg">
<path d="M8.832 18H5.064L0.36 1.2H3.84L7.056 13.656L10.56 1.2H13.392L16.92 13.656L20.136 1.2H23.616L18.912 18H15.144L11.976 6.912L8.832 18ZM28.8486 11.064V14.832H35.9286V18H25.5366V1.2H35.8086V4.368H28.8486V7.944H35.2086V11.064H28.8486Z" fill="#5F4BD9"/>
<path d="M46.2311 18.336C43.7191 18.336 41.6311 17.496 39.9671 15.816C38.3191 14.152 37.4951 12.08 37.4951 9.6C37.4951 7.104 38.3191 5.032 39.9671 3.384C41.6311 1.704 43.7191 0.863999 46.2311 0.863999C47.7511 0.863999 49.1511 1.224 50.4311 1.944C51.7271 2.648 52.7351 3.608 53.4551 4.824L50.5991 6.48C50.1831 5.728 49.5911 5.144 48.8231 4.728C48.0551 4.296 47.1911 4.08 46.2311 4.08C44.5991 4.08 43.2791 4.592 42.2711 5.616C41.2791 6.656 40.7831 7.984 40.7831 9.6C40.7831 11.2 41.2791 12.52 42.2711 13.56C43.2791 14.584 44.5991 15.096 46.2311 15.096C47.1911 15.096 48.0551 14.888 48.8231 14.472C49.6071 14.04 50.1991 13.456 50.5991 12.72L53.4551 14.376C52.7351 15.592 51.7271 16.56 50.4311 17.28C49.1511 17.984 47.7511 18.336 46.2311 18.336ZM69.4616 15.816C67.7656 17.496 65.7016 18.336 63.2696 18.336C60.8376 18.336 58.7736 17.496 57.0776 15.816C55.3976 14.104 54.5576 12.032 54.5576 9.6C54.5576 7.152 55.3976 5.088 57.0776 3.408C58.7736 1.712 60.8376 0.863999 63.2696 0.863999C65.7016 0.863999 67.7656 1.712 69.4616 3.408C71.1576 5.088 72.0056 7.152 72.0056 9.6C72.0056 12.048 71.1576 14.12 69.4616 15.816ZM59.4056 13.56C60.4296 14.584 61.7176 15.096 63.2696 15.096C64.8216 15.096 66.1096 14.584 67.1336 13.56C68.1736 12.52 68.6936 11.2 68.6936 9.6C68.6936 8 68.1736 6.68 67.1336 5.64C66.0936 4.6 64.8056 4.08 63.2696 4.08C61.7336 4.08 60.4456 4.6 59.4056 5.64C58.3656 6.68 57.8456 8 57.8456 9.6C57.8456 11.2 58.3656 12.52 59.4056 13.56ZM79.4601 18.336C77.8121 18.336 76.4201 17.968 75.2841 17.232C74.1481 16.496 73.3401 15.48 72.8601 14.184L75.6921 12.528C76.3481 14.24 77.6361 15.096 79.5561 15.096C80.4521 15.096 81.1241 14.936 81.5721 14.616C82.0201 14.296 82.2441 13.864 82.2441 13.32C82.2441 12.728 81.9801 12.272 81.4521 11.952C80.9241 11.616 79.9801 11.256 78.6201 10.872C77.1481 10.424 75.9881 9.904 75.1401 9.312C74.0841 8.528 73.5561 7.376 73.5561 5.856C73.5561 4.32 74.0921 3.112 75.1641 2.232C76.2361 1.32 77.5401 0.863999 79.0761 0.863999C80.4201 0.863999 81.6121 1.192 82.6521 1.848C83.6921 2.504 84.5001 3.432 85.0761 4.632L82.2921 6.24C81.6201 4.8 80.5481 4.08 79.0761 4.08C78.4041 4.08 77.8681 4.24 77.4681 4.56C77.0681 4.864 76.8681 5.264 76.8681 5.76C76.8681 6.288 77.0841 6.72 77.5161 7.056C77.9961 7.392 78.8441 7.744 80.0601 8.112L81.2121 8.496C81.4201 8.56 81.7801 8.696 82.2921 8.904C82.7721 9.08 83.1241 9.248 83.3481 9.408C84.1321 9.888 84.6601 10.384 84.9321 10.896C85.3481 11.568 85.5561 12.36 85.5561 13.272C85.5561 14.824 84.9881 16.056 83.8521 16.968C82.7161 17.88 81.2521 18.336 79.4601 18.336ZM100.631 1.2H104.039V18H100.751V7.104L96.0231 14.904H95.6391L90.9111 7.128V18H87.5991V1.2H91.0071L95.8311 9.144L100.631 1.2ZM121.305 15.816C119.609 17.496 117.545 18.336 115.113 18.336C112.681 18.336 110.617 17.496 108.921 15.816C107.241 14.104 106.401 12.032 106.401 9.6C106.401 7.152 107.241 5.088 108.921 3.408C110.617 1.712 112.681 0.863999 115.113 0.863999C117.545 0.863999 119.609 1.712 121.305 3.408C123.001 5.088 123.849 7.152 123.849 9.6C123.849 12.048 123.001 14.12 121.305 15.816ZM111.249 13.56C112.273 14.584 113.561 15.096 115.113 15.096C116.665 15.096 117.953 14.584 118.977 13.56C120.017 12.52 120.537 11.2 120.537 9.6C120.537 8 120.017 6.68 118.977 5.64C117.937 4.6 116.649 4.08 115.113 4.08C113.577 4.08 112.289 4.6 111.249 5.64C110.209 6.68 109.689 8 109.689 9.6C109.689 11.2 110.209 12.52 111.249 13.56ZM131.304 18.336C129.656 18.336 128.264 17.968 127.128 17.232C125.992 16.496 125.184 15.48 124.704 14.184L127.536 12.528C128.192 14.24 129.48 15.096 131.4 15.096C132.296 15.096 132.968 14.936 133.416 14.616C133.864 14.296 134.088 13.864 134.088 13.32C134.088 12.728 133.824 12.272 133.296 11.952C132.768 11.616 131.824 11.256 130.464 10.872C128.992 10.424 127.832 9.904 126.984 9.312C125.928 8.528 125.4 7.376 125.4 5.856C125.4 4.32 125.936 3.112 127.008 2.232C128.08 1.32 129.384 0.863999 130.92 0.863999C132.264 0.863999 133.456 1.192 134.496 1.848C135.536 2.504 136.344 3.432 136.92 4.632L134.136 6.24C133.464 4.8 132.392 4.08 130.92 4.08C130.248 4.08 129.712 4.24 129.312 4.56C128.912 4.864 128.712 5.264 128.712 5.76C128.712 6.288 128.928 6.72 129.36 7.056C129.84 7.392 130.688 7.744 131.904 8.112L133.056 8.496C133.264 8.56 133.624 8.696 134.136 8.904C134.616 9.08 134.968 9.248 135.192 9.408C135.976 9.888 136.504 10.384 136.776 10.896C137.192 11.568 137.4 12.36 137.4 13.272C137.4 14.824 136.832 16.056 135.696 16.968C134.56 17.88 133.096 18.336 131.304 18.336Z" fill="white"/>
</svg>
