<svg width="245" height="23" viewBox="0 0 245 23" fill="none" xmlns="http://www.w3.org/2000/svg">
<path d="M0.56 1.2H6.824C8.424 1.2 9.784 1.744 10.904 2.832C12.008 3.92 12.56 5.256 12.56 6.84C12.56 8.424 12.008 9.76 10.904 10.848C9.784 11.936 8.424 12.48 6.824 12.48H3.872V18H0.56V1.2ZM3.872 9.384H6.824C7.528 9.384 8.112 9.144 8.576 8.664C9.04 8.168 9.272 7.56 9.272 6.84C9.272 6.104 9.04 5.496 8.576 5.016C8.112 4.536 7.528 4.296 6.824 4.296H3.872V9.384ZM17.4104 6V8.064C17.6824 7.312 18.1464 6.744 18.8024 6.36C19.4584 5.96 20.2104 5.76 21.0584 5.76V9.216C20.1144 9.088 19.2664 9.28 18.5144 9.792C17.7784 10.288 17.4104 11.112 17.4104 12.264V18H14.3144V6H17.4104ZM34.0878 13.272H25.0398C25.4398 14.776 26.5678 15.528 28.4238 15.528C29.6078 15.528 30.5038 15.128 31.1118 14.328L33.6078 15.768C32.4238 17.48 30.6798 18.336 28.3758 18.336C26.3918 18.336 24.7998 17.736 23.5998 16.536C22.3998 15.336 21.7998 13.824 21.7998 12C21.7998 10.208 22.3918 8.704 23.5758 7.488C24.7438 6.272 26.2638 5.664 28.1358 5.664C29.9118 5.664 31.3598 6.272 32.4798 7.488C33.6318 8.704 34.2078 10.208 34.2078 12C34.2078 12.336 34.1678 12.76 34.0878 13.272ZM24.9918 10.872H31.1118C30.9358 10.088 30.5758 9.488 30.0318 9.072C29.5038 8.656 28.8718 8.448 28.1358 8.448C27.3038 8.448 26.6158 8.664 26.0718 9.096C25.5278 9.512 25.1678 10.104 24.9918 10.872ZM42.5131 18V1.2H45.8251V18H42.5131ZM48.935 1.2H55.607C57.911 1.2 59.831 2.008 61.367 3.624C62.919 5.224 63.695 7.216 63.695 9.6C63.695 11.984 62.919 13.976 61.367 15.576C59.831 17.192 57.911 18 55.607 18H48.935V1.2ZM52.247 14.832H55.607C57.063 14.832 58.247 14.352 59.159 13.392C60.071 12.4 60.527 11.136 60.527 9.6C60.527 8.048 60.071 6.792 59.159 5.832C58.247 4.856 57.063 4.368 55.607 4.368H52.247V14.832ZM80.1804 15.816C78.4844 17.496 76.4204 18.336 73.9884 18.336C71.5564 18.336 69.4924 17.496 67.7964 15.816C66.1164 14.104 65.2764 12.032 65.2764 9.6C65.2764 7.152 66.1164 5.088 67.7964 3.408C69.4924 1.712 71.5564 0.863999 73.9884 0.863999C76.4204 0.863999 78.4844 1.712 80.1804 3.408C81.8764 5.088 82.7244 7.152 82.7244 9.6C82.7244 12.048 81.8764 14.12 80.1804 15.816ZM70.1244 13.56C71.1484 14.584 72.4364 15.096 73.9884 15.096C75.5404 15.096 76.8284 14.584 77.8524 13.56C78.8924 12.52 79.4124 11.2 79.4124 9.6C79.4124 8 78.8924 6.68 77.8524 5.64C76.8124 4.6 75.5244 4.08 73.9884 4.08C72.4524 4.08 71.1644 4.6 70.1244 5.64C69.0844 6.68 68.5644 8 68.5644 9.6C68.5644 11.2 69.0844 12.52 70.1244 13.56Z" fill="#5F4BD9"/>
<path d="M97.5562 11.856C98.8842 12.416 99.5482 13.368 99.5482 14.712C99.5482 15.752 99.1402 16.616 98.3242 17.304C97.5082 17.976 96.3802 18.312 94.9402 18.312C92.5402 18.312 90.9322 17.352 90.1162 15.432L91.8682 14.4C92.3162 15.712 93.3482 16.368 94.9642 16.368C95.7482 16.368 96.3642 16.2 96.8122 15.864C97.2602 15.528 97.4842 15.08 97.4842 14.52C97.4842 14.04 97.3002 13.648 96.9322 13.344C96.5802 13.04 96.1002 12.888 95.4922 12.888H93.7402V10.992H95.0362C95.6442 10.992 96.1162 10.848 96.4522 10.56C96.7882 10.256 96.9562 9.848 96.9562 9.336C96.9562 8.808 96.7562 8.392 96.3562 8.088C95.9562 7.768 95.4202 7.608 94.7482 7.608C93.4042 7.608 92.4922 8.176 92.0122 9.312L90.3082 8.328C91.1562 6.568 92.6362 5.688 94.7482 5.688C96.0282 5.688 97.0522 6.024 97.8202 6.696C98.6042 7.352 98.9962 8.176 98.9962 9.168C98.9962 10.384 98.5162 11.28 97.5562 11.856ZM111.747 8.064V6H113.835V18H111.747V15.936C110.723 17.52 109.211 18.312 107.211 18.312C105.515 18.312 104.083 17.704 102.915 16.488C101.731 15.256 101.139 13.76 101.139 12C101.139 10.256 101.731 8.768 102.915 7.536C104.099 6.304 105.531 5.688 107.211 5.688C109.211 5.688 110.723 6.48 111.747 8.064ZM107.475 16.296C108.691 16.296 109.707 15.888 110.523 15.072C111.339 14.224 111.747 13.2 111.747 12C111.747 10.784 111.339 9.768 110.523 8.952C109.707 8.12 108.691 7.704 107.475 7.704C106.275 7.704 105.267 8.12 104.451 8.952C103.635 9.768 103.227 10.784 103.227 12C103.227 13.2 103.635 14.224 104.451 15.072C105.267 15.888 106.275 16.296 107.475 16.296ZM124.99 11.832C126.222 12.344 126.838 13.272 126.838 14.616C126.838 15.64 126.502 16.464 125.83 17.088C125.158 17.696 124.214 18 122.998 18H116.998V6H122.518C123.702 6 124.622 6.296 125.278 6.888C125.95 7.48 126.286 8.272 126.286 9.264C126.286 10.416 125.854 11.272 124.99 11.832ZM122.422 7.872H119.038V11.016H122.422C123.638 11.016 124.246 10.48 124.246 9.408C124.246 8.384 123.638 7.872 122.422 7.872ZM119.038 16.104H122.878C123.486 16.104 123.95 15.96 124.27 15.672C124.606 15.384 124.774 14.976 124.774 14.448C124.774 13.952 124.606 13.568 124.27 13.296C123.95 13.008 123.486 12.864 122.878 12.864H119.038V16.104ZM140.612 12.96H130.556C130.764 14.016 131.252 14.848 132.02 15.456C132.788 16.048 133.748 16.344 134.9 16.344C136.484 16.344 137.636 15.76 138.356 14.592L140.132 15.6C138.948 17.408 137.188 18.312 134.852 18.312C132.964 18.312 131.412 17.72 130.196 16.536C129.012 15.32 128.42 13.808 128.42 12C128.42 10.176 129.004 8.672 130.172 7.488C131.34 6.288 132.852 5.688 134.708 5.688C136.468 5.688 137.9 6.312 139.004 7.56C140.124 8.776 140.684 10.264 140.684 12.024C140.684 12.328 140.66 12.64 140.612 12.96ZM134.708 7.656C133.604 7.656 132.676 7.968 131.924 8.592C131.188 9.216 130.732 10.064 130.556 11.136H138.572C138.396 10.032 137.956 9.176 137.252 8.568C136.548 7.96 135.7 7.656 134.708 7.656ZM149.708 5.688C151.388 5.688 152.82 6.304 154.004 7.536C155.188 8.768 155.78 10.256 155.78 12C155.78 13.76 155.188 15.256 154.004 16.488C152.836 17.704 151.404 18.312 149.708 18.312C147.724 18.312 146.212 17.52 145.172 15.936V22.8H143.084V6H145.172V8.064C146.212 6.48 147.724 5.688 149.708 5.688ZM149.444 16.296C150.644 16.296 151.652 15.888 152.468 15.072C153.284 14.224 153.692 13.2 153.692 12C153.692 10.784 153.284 9.768 152.468 8.952C151.652 8.12 150.644 7.704 149.444 7.704C148.228 7.704 147.212 8.12 146.396 8.952C145.58 9.768 145.172 10.784 145.172 12C145.172 13.2 145.58 14.224 146.396 15.072C147.212 15.888 148.228 16.296 149.444 16.296ZM172.624 16.008V6H174.712V18H158.271V6H160.36V16.008H165.448V6H167.536V16.008H172.624ZM187.848 8.064V6H189.936V18H187.848V15.936C186.824 17.52 185.312 18.312 183.312 18.312C181.616 18.312 180.184 17.704 179.016 16.488C177.832 15.256 177.24 13.76 177.24 12C177.24 10.256 177.832 8.768 179.016 7.536C180.2 6.304 181.632 5.688 183.312 5.688C185.312 5.688 186.824 6.48 187.848 8.064ZM183.576 16.296C184.792 16.296 185.808 15.888 186.624 15.072C187.44 14.224 187.848 13.2 187.848 12C187.848 10.784 187.44 9.768 186.624 8.952C185.808 8.12 184.792 7.704 183.576 7.704C182.376 7.704 181.368 8.12 180.552 8.952C179.736 9.768 179.328 10.784 179.328 12C179.328 13.2 179.736 14.224 180.552 15.072C181.368 15.888 182.376 16.296 183.576 16.296ZM204.62 12.96H194.564C194.772 14.016 195.26 14.848 196.028 15.456C196.796 16.048 197.756 16.344 198.908 16.344C200.492 16.344 201.644 15.76 202.364 14.592L204.14 15.6C202.956 17.408 201.196 18.312 198.86 18.312C196.972 18.312 195.42 17.72 194.204 16.536C193.02 15.32 192.428 13.808 192.428 12C192.428 10.176 193.012 8.672 194.18 7.488C195.348 6.288 196.86 5.688 198.716 5.688C200.476 5.688 201.908 6.312 203.012 7.56C204.132 8.776 204.692 10.264 204.692 12.024C204.692 12.328 204.668 12.64 204.62 12.96ZM198.716 7.656C197.612 7.656 196.684 7.968 195.932 8.592C195.196 9.216 194.74 10.064 194.564 11.136H202.58C202.404 10.032 201.964 9.176 201.26 8.568C200.556 7.96 199.708 7.656 198.716 7.656ZM205.279 6H215.551V8.016H211.471V18H209.383V8.016H205.279V6ZM222.552 18.312C220.744 18.312 219.24 17.712 218.04 16.512C216.84 15.296 216.24 13.792 216.24 12C216.24 10.208 216.84 8.712 218.04 7.512C219.24 6.296 220.744 5.688 222.552 5.688C223.736 5.688 224.8 5.976 225.744 6.552C226.688 7.112 227.392 7.872 227.856 8.832L226.104 9.84C225.8 9.2 225.328 8.688 224.688 8.304C224.064 7.92 223.352 7.728 222.552 7.728C221.352 7.728 220.344 8.136 219.528 8.952C218.728 9.784 218.328 10.8 218.328 12C218.328 13.184 218.728 14.192 219.528 15.024C220.344 15.84 221.352 16.248 222.552 16.248C223.352 16.248 224.072 16.064 224.712 15.696C225.352 15.312 225.84 14.8 226.176 14.16L227.952 15.192C227.424 16.152 226.68 16.912 225.72 17.472C224.76 18.032 223.704 18.312 222.552 18.312ZM233.643 6H238.755V18H236.691V13.68H234.939L231.579 18H229.035L232.539 13.56C231.627 13.336 230.891 12.888 230.331 12.216C229.787 11.544 229.515 10.76 229.515 9.864C229.515 8.76 229.907 7.84 230.691 7.104C231.475 6.368 232.459 6 233.643 6ZM233.715 11.808H236.691V7.944H233.715C233.107 7.944 232.595 8.128 232.179 8.496C231.779 8.848 231.579 9.312 231.579 9.888C231.579 10.448 231.779 10.912 232.179 11.28C232.595 11.632 233.107 11.808 233.715 11.808ZM243.24 8.832C242.808 8.832 242.44 8.68 242.136 8.376C241.832 8.072 241.68 7.704 241.68 7.272C241.68 6.84 241.832 6.472 242.136 6.168C242.44 5.864 242.808 5.712 243.24 5.712C243.688 5.712 244.056 5.864 244.344 6.168C244.648 6.472 244.8 6.84 244.8 7.272C244.8 7.704 244.648 8.072 244.344 8.376C244.056 8.68 243.688 8.832 243.24 8.832ZM243.24 18.264C242.808 18.264 242.44 18.112 242.136 17.808C241.832 17.504 241.68 17.136 241.68 16.704C241.68 16.272 241.832 15.904 242.136 15.6C242.44 15.296 242.808 15.144 243.24 15.144C243.688 15.144 244.056 15.296 244.344 15.6C244.648 15.904 244.8 16.272 244.8 16.704C244.8 17.136 244.648 17.504 244.344 17.808C244.056 18.112 243.688 18.264 243.24 18.264Z" fill="white"/>
</svg>
