<svg width="459" height="74" viewBox="0 0 459 74" fill="none" xmlns="http://www.w3.org/2000/svg">
<path d="M-77.2 72V73H-76.4441L-76.2379 72.2728L-77.2 72ZM-92.9 72L-93.863 72.2696L-93.6585 73H-92.9V72ZM-112.5 2V0.999996H-113.818L-113.463 2.26962L-112.5 2ZM-98 2L-97.0317 1.75L-97.2254 0.999996H-98V2ZM-84.6 53.9L-85.5682 54.15L-84.6414 57.7399L-83.6374 54.1708L-84.6 53.9ZM-70 2V0.999996H-70.7575L-70.9626 1.7292L-70 2ZM-58.2 2L-57.2378 1.72748L-57.4439 0.999996H-58.2V2ZM-43.5 53.9L-44.4621 54.1725L-43.4553 57.7272L-42.5317 54.15L-43.5 53.9ZM-30.1 2V0.999996H-30.8746L-31.0682 1.75L-30.1 2ZM-15.6 2L-14.637 2.26962L-14.2815 0.999996H-15.6V2ZM-35.2 72V73H-34.4415L-34.237 72.2696L-35.2 72ZM-50.9 72L-51.8615 72.2747L-51.6543 73H-50.9V72ZM-64.1 25.8L-63.1385 25.5253L-64.1037 22.1471L-65.0621 25.5272L-64.1 25.8ZM-77.2 71H-92.9V73H-77.2V71ZM-91.937 71.7304L-111.537 1.73037L-113.463 2.26962L-93.863 72.2696L-91.937 71.7304ZM-112.5 3H-98V0.999996H-112.5V3ZM-98.9682 2.24999L-85.5682 54.15L-83.6318 53.65L-97.0317 1.75L-98.9682 2.24999ZM-83.6374 54.1708L-69.0374 2.27079L-70.9626 1.7292L-85.5626 53.6292L-83.6374 54.1708ZM-70 3H-58.2V0.999996H-70V3ZM-59.1621 2.27251L-44.4621 54.1725L-42.5378 53.6275L-57.2378 1.72748L-59.1621 2.27251ZM-42.5317 54.15L-29.1317 2.24999L-31.0682 1.75L-44.4682 53.65L-42.5317 54.15ZM-30.1 3H-15.6V0.999996H-30.1V3ZM-16.563 1.73037L-36.163 71.7304L-34.237 72.2696L-14.637 2.26962L-16.563 1.73037ZM-35.2 71H-50.9V73H-35.2V71ZM-49.9385 71.7253L-63.1385 25.5253L-65.0615 26.0747L-51.8615 72.2747L-49.9385 71.7253ZM-65.0621 25.5272L-78.1621 71.7272L-76.2379 72.2728L-63.1379 26.0728L-65.0621 25.5272ZM6.20235 43.1V42.1H5.20235V43.1H6.20235ZM6.20235 58.8H5.20235V59.8H6.20235V58.8ZM35.7023 58.8H36.7023V57.8H35.7023V58.8ZM35.7023 72V73H36.7023V72H35.7023ZM-7.59766 72H-8.59766V73H-7.59766V72ZM-7.59766 2V0.999996H-8.59766V2H-7.59766ZM35.2023 2H36.2023V0.999996H35.2023V2ZM35.2023 15.2V16.2H36.2023V15.2H35.2023ZM6.20235 15.2V14.2H5.20235V15.2H6.20235ZM6.20235 30.1H5.20235V31.1H6.20235V30.1ZM32.7023 30.1H33.7023V29.1H32.7023V30.1ZM32.7023 43.1V44.1H33.7023V43.1H32.7023ZM5.20235 43.1V58.8H7.20235V43.1H5.20235ZM6.20235 59.8H35.7023V57.8H6.20235V59.8ZM34.7023 58.8V72H36.7023V58.8H34.7023ZM35.7023 71H-7.59766V73H35.7023V71ZM-6.59766 72V2H-8.59766V72H-6.59766ZM-7.59766 3H35.2023V0.999996H-7.59766V3ZM34.2023 2V15.2H36.2023V2H34.2023ZM35.2023 14.2H6.20235V16.2H35.2023V14.2ZM5.20235 15.2V30.1H7.20235V15.2H5.20235ZM6.20235 31.1H32.7023V29.1H6.20235V31.1ZM31.7023 30.1V43.1H33.7023V30.1H31.7023ZM32.7023 42.1H6.20235V44.1H32.7023V42.1ZM52.0414 62.9L51.3309 63.6037L51.3309 63.6037L52.0414 62.9ZM52.0414 11.1L52.7485 11.8071L52.7519 11.8037L52.0414 11.1ZM95.6414 5.1L95.1512 5.97157L95.1576 5.97519L95.1641 5.97872L95.6414 5.1ZM108.241 17.1L108.743 17.9651L109.616 17.4589L109.102 16.5905L108.241 17.1ZM96.3414 24L95.4664 24.4841L95.9603 25.3769L96.843 24.8651L96.3414 24ZM88.9414 16.7L88.4511 17.5716L88.4581 17.5755L88.4651 17.5793L88.9414 16.7ZM61.6414 20.4L60.9288 19.6985L60.9232 19.7041L60.9178 19.7098L61.6414 20.4ZM61.6414 53.5L60.9178 54.1902L60.9232 54.1959L60.9288 54.2015L61.6414 53.5ZM88.9414 57.3L89.4177 58.1793L89.424 58.1758L88.9414 57.3ZM96.3414 50L96.843 49.1349L95.9537 48.6192L95.4628 49.5225L96.3414 50ZM108.241 56.9L109.102 57.4095L109.616 56.5411L108.743 56.0349L108.241 56.9ZM95.6414 69L96.1233 69.8762L96.127 69.8742L95.6414 69ZM78.1414 72.4C67.9231 72.4 59.4848 68.9939 52.7519 62.1963L51.3309 63.6037C58.4647 70.8061 67.4263 74.4 78.1414 74.4V72.4ZM52.7519 62.1963C46.0825 55.4621 42.7414 47.087 42.7414 37H40.7414C40.7414 47.5797 44.267 56.4712 51.3309 63.6037L52.7519 62.1963ZM42.7414 37C42.7414 26.8444 46.0836 18.472 52.7485 11.8071L51.3343 10.3929C44.2659 17.4613 40.7414 26.3556 40.7414 37H42.7414ZM52.7519 11.8037C59.4848 5.00606 67.9231 1.59999 78.1414 1.59999V-0.400005C67.4263 -0.400005 58.4647 3.19393 51.3309 10.3963L52.7519 11.8037ZM78.1414 1.59999C84.3093 1.59999 89.9729 3.05878 95.1512 5.97157L96.1317 4.22842C90.6433 1.14121 84.6402 -0.400005 78.1414 -0.400005V1.59999ZM95.1641 5.97872C100.413 8.82977 104.477 12.7052 107.381 17.6095L109.102 16.5905C106.006 11.3615 101.67 7.23689 96.1187 4.22127L95.1641 5.97872ZM107.74 16.2349L95.8398 23.1349L96.843 24.8651L108.743 17.9651L107.74 16.2349ZM97.2164 23.5159C95.3891 20.2126 92.7827 17.6434 89.4177 15.8207L88.4651 17.5793C91.5001 19.2232 93.8271 21.5207 95.4664 24.4841L97.2164 23.5159ZM89.4317 15.8284C86.0688 13.9368 82.2973 13 78.1414 13V15C81.9855 15 85.414 15.8632 88.4511 17.5716L89.4317 15.8284ZM78.1414 13C71.1132 13 65.3429 15.2143 60.9288 19.6985L62.3541 21.1015C66.34 17.0523 71.5697 15 78.1414 15V13ZM60.9178 19.7098C56.5845 24.2528 54.4414 30.0443 54.4414 37H56.4414C56.4414 30.4891 58.4317 25.2139 62.365 21.0902L60.9178 19.7098ZM54.4414 37C54.4414 43.8921 56.5863 49.6492 60.9178 54.1902L62.365 52.8098C58.4298 48.6842 56.4414 43.4413 56.4414 37H54.4414ZM60.9288 54.2015C65.3429 58.6857 71.1132 60.9 78.1414 60.9V58.9C71.5697 58.9 66.34 56.8476 62.3541 52.7985L60.9288 54.2015ZM78.1414 60.9C82.2909 60.9 86.0573 59.9995 89.4177 58.1793L88.4651 56.4207C85.4255 58.0672 81.9919 58.9 78.1414 58.9V60.9ZM89.424 58.1758C92.846 56.2902 95.4558 53.7237 97.22 50.4775L95.4628 49.5225C93.8937 52.4096 91.5701 54.7098 88.4588 56.4242L89.424 58.1758ZM95.8398 50.8651L107.74 57.7651L108.743 56.0349L96.843 49.1349L95.8398 50.8651ZM107.381 56.3905C104.476 61.2969 100.409 65.2076 95.1558 68.1258L96.127 69.8742C101.674 66.7924 106.007 62.6364 109.102 57.4095L107.381 56.3905ZM95.1595 68.1238C89.9799 70.9726 84.3133 72.4 78.1414 72.4V74.4C84.6362 74.4 90.6363 72.8941 96.1233 69.8762L95.1595 68.1238ZM174.935 62.9L175.639 63.6105L175.642 63.6071L174.935 62.9ZM123.335 62.9L122.621 63.6004L122.626 63.6055L122.631 63.6105L123.335 62.9ZM123.335 11.2L122.628 10.4929L123.335 11.2ZM174.935 11.2L174.228 11.9071L174.231 11.9104L174.935 11.2ZM133.035 53.5L132.328 54.2071L133.035 53.5ZM165.235 53.5L165.942 54.2071L165.235 53.5ZM165.235 20.5L165.942 19.7929L165.235 20.5ZM133.035 20.5L132.328 19.7929L133.035 20.5ZM174.231 62.1896C167.356 69.0002 159.01 72.4 149.135 72.4V74.4C159.527 74.4 168.381 70.7998 175.639 63.6105L174.231 62.1896ZM149.135 72.4C139.26 72.4 130.914 69.0002 124.039 62.1896L122.631 63.6105C129.889 70.7998 138.744 74.4 149.135 74.4V72.4ZM124.049 62.1996C117.235 55.2561 113.835 46.8755 113.835 37H111.835C111.835 47.3912 115.435 56.2772 122.621 63.6004L124.049 62.1996ZM113.835 37C113.835 27.0562 117.236 18.7133 124.042 11.9071L122.628 10.4929C115.434 17.6867 111.835 26.5438 111.835 37H113.835ZM124.042 11.9071C130.918 5.03089 139.263 1.59999 149.135 1.59999V-0.400005C138.741 -0.400005 129.885 3.23577 122.628 10.4929L124.042 11.9071ZM149.135 1.59999C159.007 1.59999 167.352 5.03089 174.228 11.9071L175.642 10.4929C168.385 3.23577 159.53 -0.400005 149.135 -0.400005V1.59999ZM174.231 11.9104C181.103 18.7174 184.535 27.0592 184.535 37H186.535C186.535 26.5408 182.901 17.6826 175.639 10.4895L174.231 11.9104ZM184.535 37C184.535 46.9409 181.103 55.3181 174.228 62.1929L175.642 63.6071C182.901 56.3486 186.535 47.4591 186.535 37H184.535ZM132.328 54.2071C136.797 58.6757 142.424 60.9 149.135 60.9V58.9C142.913 58.9 137.807 56.8576 133.742 52.7929L132.328 54.2071ZM149.135 60.9C155.846 60.9 161.474 58.6757 165.942 54.2071L164.528 52.7929C160.463 56.8576 155.358 58.9 149.135 58.9V60.9ZM165.942 54.2071C170.481 49.6688 172.735 43.9062 172.735 37H170.735C170.735 43.4271 168.656 48.6645 164.528 52.7929L165.942 54.2071ZM172.735 37C172.735 30.0938 170.481 24.3312 165.942 19.7929L164.528 21.2071C168.656 25.3355 170.735 30.5729 170.735 37H172.735ZM165.942 19.7929C161.412 15.263 155.787 13 149.135 13V15C155.283 15 160.391 17.0704 164.528 21.2071L165.942 19.7929ZM149.135 13C142.483 13 136.858 15.263 132.328 19.7929L133.742 21.2071C137.879 17.0704 142.987 15 149.135 15V13ZM132.328 19.7929C127.79 24.3312 125.535 30.0938 125.535 37H127.535C127.535 30.5729 129.614 25.3355 133.742 21.2071L132.328 19.7929ZM125.535 37C125.535 43.9062 127.79 49.6688 132.328 54.2071L133.742 52.7929C129.614 48.6645 127.535 43.4271 127.535 37H125.535ZM199.195 68.8L199.739 67.9607L199.195 68.8ZM189.095 56.1L188.591 55.2367L187.866 55.6604L188.158 56.4473L189.095 56.1ZM200.895 49.2L201.829 48.8422L201.408 47.7421L200.391 48.3368L200.895 49.2ZM225.395 57.9L225.977 58.7137L225.395 57.9ZM224.895 46.8L224.358 47.6437L224.368 47.6495L224.377 47.6552L224.895 46.8ZM213.095 42.3L212.804 43.2567L212.814 43.2596L212.824 43.2624L213.095 42.3ZM198.595 35.8L197.999 36.6029L198.011 36.6116L198.023 36.62L198.595 35.8ZM198.695 6.3L199.33 7.07293L199.337 7.06735L199.343 7.06166L198.695 6.3ZM229.895 4.7L229.362 5.54579L229.895 4.7ZM239.995 16.3L240.495 17.1659L241.298 16.7025L240.897 15.8673L239.995 16.3ZM228.395 23L227.489 23.4229L227.951 24.4117L228.895 23.8659L228.395 23ZM208.295 16L208.9 16.7962L208.91 16.7886L208.92 16.7809L208.295 16ZM208.495 26.4L207.881 27.1894L207.901 27.2048L207.922 27.2192L208.495 26.4ZM219.095 30.8L219.412 29.8513L219.398 29.8469L219.385 29.8429L219.095 30.8ZM223.895 32.4L223.579 33.3487L223.59 33.3524L223.601 33.3558L223.895 32.4ZM228.395 34.1L228.019 35.0265L228.035 35.0329L228.051 35.0389L228.395 34.1ZM232.795 36.2L232.214 37.0137L232.243 37.0343L232.273 37.0528L232.795 36.2ZM239.395 42.4L238.512 42.8692L238.528 42.8983L238.545 42.9264L239.395 42.4ZM234.895 67.7L234.269 66.9202L234.895 67.7ZM216.595 72.4C209.879 72.4 204.278 70.9017 199.739 67.9607L198.652 69.6393C203.579 72.8317 209.578 74.4 216.595 74.4V72.4ZM199.739 67.9607C195.191 65.0139 191.96 60.9551 190.033 55.7527L188.158 56.4473C190.231 62.0449 193.733 66.4527 198.652 69.6393L199.739 67.9607ZM189.6 56.9632L201.4 50.0632L200.391 48.3368L188.591 55.2367L189.6 56.9632ZM199.962 49.5578C201.388 53.2816 203.53 56.1394 206.417 58.0578C209.3 59.9739 212.846 60.9 216.995 60.9V58.9C213.145 58.9 210.007 58.0428 207.524 56.3922C205.044 54.7439 203.136 52.2518 201.829 48.8422L199.962 49.5578ZM216.995 60.9C220.818 60.9 223.864 60.2229 225.977 58.7137L224.814 57.0863C223.194 58.2438 220.64 58.9 216.995 58.9V60.9ZM225.977 58.7137C228.102 57.1954 229.195 55.0942 229.195 52.5H227.195C227.195 54.4391 226.422 55.938 224.814 57.0863L225.977 58.7137ZM229.195 52.5C229.195 49.6657 227.897 47.4499 225.414 45.9448L224.377 47.6552C226.294 48.8168 227.195 50.4009 227.195 52.5H229.195ZM225.432 45.9563C223.098 44.471 219.04 42.9394 213.367 41.3376L212.824 43.2624C218.484 44.8606 222.293 46.329 224.358 47.6437L225.432 45.9563ZM213.386 41.3433C207.309 39.4938 202.584 37.365 199.168 34.98L198.023 36.62C201.673 39.1683 206.614 41.3729 212.804 43.2567L213.386 41.3433ZM199.191 34.9971C195.087 31.9502 192.995 27.473 192.995 21.4H190.995C190.995 27.9936 193.303 33.1165 197.999 36.6029L199.191 34.9971ZM192.995 21.4C192.995 15.2629 195.121 10.5277 199.33 7.07293L198.061 5.52707C193.336 9.40567 190.995 14.7371 190.995 21.4H192.995ZM199.343 7.06166C203.612 3.42997 208.809 1.59999 214.995 1.59999V-0.400005C208.381 -0.400005 202.712 1.57002 198.047 5.53834L199.343 7.06166ZM214.995 1.59999C220.425 1.59999 225.203 2.9225 229.362 5.54579L230.429 3.8542C225.921 1.01082 220.766 -0.400005 214.995 -0.400005V1.59999ZM229.362 5.54579C233.523 8.17051 236.768 11.8877 239.094 16.7327L240.897 15.8673C238.422 10.7123 234.934 6.69615 230.429 3.8542L229.362 5.54579ZM239.495 15.4341L227.895 22.1341L228.895 23.8659L240.495 17.1659L239.495 15.4341ZM229.301 22.5771C227.842 19.4501 225.919 17.0424 223.503 15.4199C221.082 13.7942 218.232 13 214.995 13V15C217.892 15 220.342 15.7058 222.388 17.0801C224.439 18.4576 226.148 20.5499 227.489 23.4229L229.301 22.5771ZM214.995 13C212.04 13 209.563 13.705 207.671 15.2191L208.92 16.7809C210.361 15.6283 212.351 15 214.995 15V13ZM207.69 15.2038C205.779 16.6567 204.795 18.6161 204.795 21H206.795C206.795 19.2506 207.479 17.8766 208.9 16.7962L207.69 15.2038ZM204.795 21C204.795 23.5215 205.848 25.608 207.881 27.1894L209.109 25.6106C207.542 24.392 206.795 22.8785 206.795 21H204.795ZM207.922 27.2192C210.062 28.7171 213.728 30.2204 218.806 31.7571L219.385 29.8429C214.33 28.313 210.929 26.8829 209.069 25.5808L207.922 27.2192ZM218.779 31.7487L223.579 33.3487L224.212 31.4513L219.412 29.8513L218.779 31.7487ZM223.601 33.3558C224.421 33.608 225.884 34.1591 228.019 35.0265L228.772 33.1735C226.64 32.3075 225.103 31.7253 224.189 31.4442L223.601 33.3558ZM228.051 35.0389C230.026 35.7629 231.391 36.4262 232.214 37.0137L233.377 35.3863C232.332 34.6405 230.765 33.9038 228.74 33.1611L228.051 35.0389ZM232.273 37.0528C235.468 39.0091 237.498 40.9605 238.512 42.8692L240.278 41.9308C239.026 39.5728 236.656 37.3909 233.317 35.3471L232.273 37.0528ZM238.545 42.9264C240.166 45.5451 240.995 48.6568 240.995 52.3H242.995C242.995 48.3432 242.091 44.8549 240.246 41.8736L238.545 42.9264ZM240.995 52.3C240.995 58.4863 238.749 63.3238 234.269 66.9202L235.521 68.4798C240.508 64.4762 242.995 59.0471 242.995 52.3H240.995ZM234.269 66.9202C229.751 70.5472 223.888 72.4 216.595 72.4V74.4C224.236 74.4 230.573 72.4528 235.521 68.4798L234.269 66.9202ZM304.808 2V0.999996H304.244L303.952 1.48284L304.808 2ZM319.008 2H320.008V0.999996H319.008V2ZM319.008 72V73H320.008V72H319.008ZM305.308 72H304.308V73H305.308V72ZM305.308 26.6H306.308V23.0211L304.453 26.0816L305.308 26.6ZM285.608 59.1V60.1H286.171L286.463 59.6184L285.608 59.1ZM284.008 59.1L283.153 59.6195L283.445 60.1H284.008V59.1ZM264.308 26.7L265.162 26.1805L263.308 23.1305V26.7H264.308ZM264.308 72V73H265.308V72H264.308ZM250.508 72H249.508V73H250.508V72ZM250.508 2V0.999996H249.508V2H250.508ZM264.708 2L265.563 1.48095L265.271 0.999996H264.708V2ZM284.808 35.1L283.953 35.619L284.81 37.0301L285.664 35.6172L284.808 35.1ZM304.808 3H319.008V0.999996H304.808V3ZM318.008 2V72H320.008V2H318.008ZM319.008 71H305.308V73H319.008V71ZM306.308 72V26.6H304.308V72H306.308ZM304.453 26.0816L284.753 58.5816L286.463 59.6184L306.163 27.1184L304.453 26.0816ZM285.608 58.1H284.008V60.1H285.608V58.1ZM284.862 58.5805L265.162 26.1805L263.453 27.2195L283.153 59.6195L284.862 58.5805ZM263.308 26.7V72H265.308V26.7H263.308ZM264.308 71H250.508V73H264.308V71ZM251.508 72V2H249.508V72H251.508ZM250.508 3H264.708V0.999996H250.508V3ZM263.853 2.51904L283.953 35.619L285.663 34.581L265.563 1.48095L263.853 2.51904ZM285.664 35.6172L305.664 2.51715L303.952 1.48284L283.952 34.5828L285.664 35.6172ZM390.951 62.9L391.655 63.6105L391.658 63.6071L390.951 62.9ZM339.351 62.9L338.637 63.6004L338.642 63.6055L338.647 63.6105L339.351 62.9ZM339.351 11.2L338.644 10.4929L339.351 11.2ZM390.951 11.2L390.244 11.9071L390.247 11.9104L390.951 11.2ZM349.051 53.5L348.344 54.2071L349.051 53.5ZM381.251 53.5L381.958 54.2071L381.251 53.5ZM381.251 20.5L381.958 19.7929L381.251 20.5ZM349.051 20.5L348.344 19.7929L349.051 20.5ZM390.247 62.1896C383.372 69.0002 375.026 72.4 365.151 72.4V74.4C375.542 74.4 384.397 70.7998 391.655 63.6105L390.247 62.1896ZM365.151 72.4C355.275 72.4 346.93 69.0002 340.055 62.1896L338.647 63.6105C345.905 70.7998 354.759 74.4 365.151 74.4V72.4ZM340.065 62.1996C333.251 55.2561 329.851 46.8755 329.851 37H327.851C327.851 47.3912 331.451 56.2772 338.637 63.6004L340.065 62.1996ZM329.851 37C329.851 27.0562 333.252 18.7133 340.058 11.9071L338.644 10.4929C331.45 17.6867 327.851 26.5438 327.851 37H329.851ZM340.058 11.9071C346.934 5.03089 355.279 1.59999 365.151 1.59999V-0.400005C354.756 -0.400005 345.901 3.23577 338.644 10.4929L340.058 11.9071ZM365.151 1.59999C375.023 1.59999 383.367 5.03089 390.244 11.9071L391.658 10.4929C384.401 3.23577 375.545 -0.400005 365.151 -0.400005V1.59999ZM390.247 11.9104C397.119 18.7174 400.551 27.0592 400.551 37H402.551C402.551 26.5408 398.916 17.6826 391.655 10.4895L390.247 11.9104ZM400.551 37C400.551 46.9409 397.118 55.3181 390.244 62.1929L391.658 63.6071C398.916 56.3486 402.551 47.4591 402.551 37H400.551ZM348.344 54.2071C352.812 58.6757 358.44 60.9 365.151 60.9V58.9C358.928 58.9 353.823 56.8576 349.758 52.7929L348.344 54.2071ZM365.151 60.9C371.862 60.9 377.489 58.6757 381.958 54.2071L380.544 52.7929C376.479 56.8576 371.373 58.9 365.151 58.9V60.9ZM381.958 54.2071C386.496 49.6688 388.751 43.9062 388.751 37H386.751C386.751 43.4271 384.672 48.6645 380.544 52.7929L381.958 54.2071ZM388.751 37C388.751 30.0938 386.496 24.3312 381.958 19.7929L380.544 21.2071C384.672 25.3355 386.751 30.5729 386.751 37H388.751ZM381.958 19.7929C377.428 15.263 371.803 13 365.151 13V15C371.299 15 376.407 17.0704 380.544 21.2071L381.958 19.7929ZM365.151 13C358.499 13 352.874 15.263 348.344 19.7929L349.758 21.2071C353.895 17.0704 359.003 15 365.151 15V13ZM348.344 19.7929C343.805 24.3312 341.551 30.0938 341.551 37H343.551C343.551 30.5729 345.63 25.3355 349.758 21.2071L348.344 19.7929ZM341.551 37C341.551 43.9062 343.805 49.6688 348.344 54.2071L349.758 52.7929C345.63 48.6645 343.551 43.4271 343.551 37H341.551ZM415.211 68.8L415.755 67.9607L415.211 68.8ZM405.111 56.1L404.606 55.2367L403.882 55.6604L404.173 56.4473L405.111 56.1ZM416.911 49.2L417.845 48.8422L417.423 47.7421L416.406 48.3368L416.911 49.2ZM441.411 57.9L441.992 58.7137L441.411 57.9ZM440.911 46.8L440.374 47.6437L440.383 47.6495L440.393 47.6552L440.911 46.8ZM429.111 42.3L428.82 43.2567L428.829 43.2596L428.839 43.2624L429.111 42.3ZM414.611 35.8L414.015 36.6029L414.027 36.6116L414.039 36.62L414.611 35.8ZM414.711 6.3L415.345 7.07293L415.352 7.06735L415.359 7.06166L414.711 6.3ZM445.911 4.7L445.377 5.54579L445.911 4.7ZM456.011 16.3L456.511 17.1659L457.313 16.7025L456.912 15.8673L456.011 16.3ZM444.411 23L443.505 23.4229L443.966 24.4117L444.911 23.8659L444.411 23ZM424.311 16L424.916 16.7962L424.926 16.7886L424.936 16.7809L424.311 16ZM424.511 26.4L423.897 27.1894L423.917 27.2048L423.938 27.2192L424.511 26.4ZM435.111 30.8L435.427 29.8513L435.414 29.8469L435.401 29.8429L435.111 30.8ZM439.911 32.4L439.595 33.3487L439.606 33.3524L439.617 33.3558L439.911 32.4ZM444.411 34.1L444.035 35.0265L444.051 35.0329L444.067 35.0389L444.411 34.1ZM448.811 36.2L448.23 37.0137L448.259 37.0343L448.289 37.0528L448.811 36.2ZM455.411 42.4L454.528 42.8692L454.543 42.8983L454.561 42.9264L455.411 42.4ZM450.911 67.7L450.285 66.9202L450.911 67.7ZM432.611 72.4C425.895 72.4 420.294 70.9017 415.755 67.9607L414.667 69.6393C419.595 72.8317 425.594 74.4 432.611 74.4V72.4ZM415.755 67.9607C411.206 65.0139 407.976 60.9551 406.049 55.7527L404.173 56.4473C406.246 62.0449 409.749 66.4527 414.667 69.6393L415.755 67.9607ZM405.616 56.9632L417.416 50.0632L416.406 48.3368L404.606 55.2367L405.616 56.9632ZM415.977 49.5578C417.404 53.2816 419.546 56.1394 422.432 58.0578C425.315 59.9739 428.862 60.9 433.011 60.9V58.9C429.16 58.9 426.023 58.0428 423.539 56.3922C421.059 54.7439 419.151 52.2518 417.845 48.8422L415.977 49.5578ZM433.011 60.9C436.833 60.9 439.879 60.2229 441.992 58.7137L440.83 57.0863C439.209 58.2438 436.655 58.9 433.011 58.9V60.9ZM441.992 58.7137C444.118 57.1954 445.211 55.0942 445.211 52.5H443.211C443.211 54.4391 442.437 55.938 440.83 57.0863L441.992 58.7137ZM445.211 52.5C445.211 49.6657 443.913 47.4499 441.429 45.9448L440.393 47.6552C442.309 48.8168 443.211 50.4009 443.211 52.5H445.211ZM441.448 45.9563C439.114 44.471 435.055 42.9394 429.383 41.3376L428.839 43.2624C434.5 44.8606 438.308 46.329 440.374 47.6437L441.448 45.9563ZM429.402 41.3433C423.325 39.4938 418.6 37.365 415.183 34.98L414.039 36.62C417.689 39.1683 422.63 41.3729 428.82 43.2567L429.402 41.3433ZM415.207 34.9971C411.103 31.9502 409.011 27.473 409.011 21.4H407.011C407.011 27.9936 409.319 33.1165 414.015 36.6029L415.207 34.9971ZM409.011 21.4C409.011 15.2629 411.137 10.5277 415.345 7.07293L414.076 5.52707C409.352 9.40567 407.011 14.7371 407.011 21.4H409.011ZM415.359 7.06166C419.628 3.42997 424.825 1.59999 431.011 1.59999V-0.400005C424.397 -0.400005 418.727 1.57002 414.063 5.53834L415.359 7.06166ZM431.011 1.59999C436.44 1.59999 441.219 2.9225 445.377 5.54579L446.444 3.8542C441.937 1.01082 436.782 -0.400005 431.011 -0.400005V1.59999ZM445.377 5.54579C449.539 8.17051 452.784 11.8877 455.109 16.7327L456.912 15.8673C454.438 10.7123 450.95 6.69615 446.444 3.8542L445.377 5.54579ZM455.511 15.4341L443.911 22.1341L444.911 23.8659L456.511 17.1659L455.511 15.4341ZM445.317 22.5771C443.858 19.4501 441.934 17.0424 439.518 15.4199C437.098 13.7942 434.248 13 431.011 13V15C433.908 15 436.357 15.7058 438.403 17.0801C440.454 18.4576 442.164 20.5499 443.505 23.4229L445.317 22.5771ZM431.011 13C428.055 13 425.579 13.705 423.686 15.2191L424.936 16.7809C426.376 15.6283 428.367 15 431.011 15V13ZM423.706 15.2038C421.794 16.6567 420.811 18.6161 420.811 21H422.811C422.811 19.2506 423.494 17.8766 424.916 16.7962L423.706 15.2038ZM420.811 21C420.811 23.5215 421.864 25.608 423.897 27.1894L425.125 25.6106C423.558 24.392 422.811 22.8785 422.811 21H420.811ZM423.938 27.2192C426.077 28.7171 429.743 30.2204 434.821 31.7571L435.401 29.8429C430.345 28.313 426.945 26.8829 425.084 25.5808L423.938 27.2192ZM434.795 31.7487L439.595 33.3487L440.227 31.4513L435.427 29.8513L434.795 31.7487ZM439.617 33.3558C440.437 33.608 441.9 34.1591 444.035 35.0265L444.787 33.1735C442.656 32.3075 441.119 31.7253 440.205 31.4442L439.617 33.3558ZM444.067 35.0389C446.041 35.7629 447.407 36.4262 448.23 37.0137L449.392 35.3863C448.348 34.6405 446.781 33.9038 444.755 33.1611L444.067 35.0389ZM448.289 37.0528C451.484 39.0091 453.514 40.9605 454.528 42.8692L456.294 41.9308C455.041 39.5728 452.671 37.3909 449.333 35.3471L448.289 37.0528ZM454.561 42.9264C456.182 45.5451 457.011 48.6568 457.011 52.3H459.011C459.011 48.3432 458.107 44.8549 456.261 41.8736L454.561 42.9264ZM457.011 52.3C457.011 58.4863 454.765 63.3238 450.285 66.9202L451.537 68.4798C456.524 64.4762 459.011 59.0471 459.011 52.3H457.011ZM450.285 66.9202C445.767 70.5472 439.904 72.4 432.611 72.4V74.4C440.251 74.4 446.588 72.4528 451.537 68.4798L450.285 66.9202Z" fill="white" fill-opacity="0.25"/>
</svg>
