<svg width="351" height="74" viewBox="0 0 351 74" fill="none" xmlns="http://www.w3.org/2000/svg">
<path d="M35.8 72V73H36.5559L36.7621 72.2728L35.8 72ZM20.1 72L19.137 72.2696L19.3415 73H20.1V72ZM0.5 2V0.999996H-0.81846L-0.462964 2.26962L0.5 2ZM15 2L15.9683 1.75L15.7746 0.999996H15V2ZM28.4 53.9L27.4318 54.15L28.3586 57.7399L29.3626 54.1708L28.4 53.9ZM43 2V0.999996H42.2425L42.0374 1.7292L43 2ZM54.8 2L55.7622 1.72748L55.5561 0.999996H54.8V2ZM69.5 53.9L68.5379 54.1725L69.5447 57.7272L70.4683 54.15L69.5 53.9ZM82.9 2V0.999996H82.1254L81.9318 1.75L82.9 2ZM97.4 2L98.363 2.26962L98.7185 0.999996H97.4V2ZM77.8 72V73H78.5585L78.763 72.2696L77.8 72ZM62.1 72L61.1385 72.2747L61.3457 73H62.1V72ZM48.9 25.8L49.8615 25.5253L48.8963 22.1471L47.9379 25.5272L48.9 25.8ZM35.8 71H20.1V73H35.8V71ZM21.063 71.7304L1.46296 1.73037L-0.462964 2.26962L19.137 72.2696L21.063 71.7304ZM0.5 3H15V0.999996H0.5V3ZM14.0318 2.24999L27.4318 54.15L29.3682 53.65L15.9683 1.75L14.0318 2.24999ZM29.3626 54.1708L43.9626 2.27079L42.0374 1.7292L27.4374 53.6292L29.3626 54.1708ZM43 3H54.8V0.999996H43V3ZM53.8379 2.27251L68.5379 54.1725L70.4622 53.6275L55.7622 1.72748L53.8379 2.27251ZM70.4683 54.15L83.8683 2.24999L81.9318 1.75L68.5318 53.65L70.4683 54.15ZM82.9 3H97.4V0.999996H82.9V3ZM96.437 1.73037L76.837 71.7304L78.763 72.2696L98.363 2.26962L96.437 1.73037ZM77.8 71H62.1V73H77.8V71ZM63.0615 71.7253L49.8615 25.5253L47.9385 26.0747L61.1385 72.2747L63.0615 71.7253ZM47.9379 25.5272L34.8379 71.7272L36.7621 72.2728L49.8621 26.0728L47.9379 25.5272ZM119.202 43.1V42.1H118.202V43.1H119.202ZM119.202 58.8H118.202V59.8H119.202V58.8ZM148.702 58.8H149.702V57.8H148.702V58.8ZM148.702 72V73H149.702V72H148.702ZM105.402 72H104.402V73H105.402V72ZM105.402 2V0.999996H104.402V2H105.402ZM148.202 2H149.202V0.999996H148.202V2ZM148.202 15.2V16.2H149.202V15.2H148.202ZM119.202 15.2V14.2H118.202V15.2H119.202ZM119.202 30.1H118.202V31.1H119.202V30.1ZM145.702 30.1H146.702V29.1H145.702V30.1ZM145.702 43.1V44.1H146.702V43.1H145.702ZM118.202 43.1V58.8H120.202V43.1H118.202ZM119.202 59.8H148.702V57.8H119.202V59.8ZM147.702 58.8V72H149.702V58.8H147.702ZM148.702 71H105.402V73H148.702V71ZM106.402 72V2H104.402V72H106.402ZM105.402 3H148.202V0.999996H105.402V3ZM147.202 2V15.2H149.202V2H147.202ZM148.202 14.2H119.202V16.2H148.202V14.2ZM118.202 15.2V30.1H120.202V15.2H118.202ZM119.202 31.1H145.702V29.1H119.202V31.1ZM144.702 30.1V43.1H146.702V30.1H144.702ZM145.702 42.1H119.202V44.1H145.702V42.1ZM165.041 62.9L164.331 63.6037L164.331 63.6037L165.041 62.9ZM165.041 11.1L165.749 11.8071L165.752 11.8037L165.041 11.1ZM208.641 5.1L208.151 5.97157L208.158 5.97519L208.164 5.97872L208.641 5.1ZM221.241 17.1L221.743 17.9651L222.616 17.4589L222.102 16.5905L221.241 17.1ZM209.341 24L208.466 24.4841L208.96 25.3769L209.843 24.8651L209.341 24ZM201.941 16.7L201.451 17.5716L201.458 17.5755L201.465 17.5793L201.941 16.7ZM174.641 20.4L173.929 19.6985L173.923 19.7041L173.918 19.7098L174.641 20.4ZM174.641 53.5L173.918 54.1902L173.923 54.1959L173.929 54.2015L174.641 53.5ZM201.941 57.3L202.418 58.1793L202.424 58.1758L201.941 57.3ZM209.341 50L209.843 49.1349L208.954 48.6192L208.463 49.5225L209.341 50ZM221.241 56.9L222.102 57.4095L222.616 56.5411L221.743 56.0349L221.241 56.9ZM208.641 69L209.123 69.8762L209.127 69.8742L208.641 69ZM191.141 72.4C180.923 72.4 172.485 68.9939 165.752 62.1963L164.331 63.6037C171.465 70.8061 180.426 74.4 191.141 74.4V72.4ZM165.752 62.1963C159.082 55.4621 155.741 47.087 155.741 37H153.741C153.741 47.5797 157.267 56.4712 164.331 63.6037L165.752 62.1963ZM155.741 37C155.741 26.8444 159.084 18.472 165.749 11.8071L164.334 10.3929C157.266 17.4613 153.741 26.3556 153.741 37H155.741ZM165.752 11.8037C172.485 5.00606 180.923 1.59999 191.141 1.59999V-0.400005C180.426 -0.400005 171.465 3.19393 164.331 10.3963L165.752 11.8037ZM191.141 1.59999C197.309 1.59999 202.973 3.05878 208.151 5.97157L209.132 4.22842C203.643 1.14121 197.64 -0.400005 191.141 -0.400005V1.59999ZM208.164 5.97872C213.413 8.82977 217.477 12.7052 220.381 17.6095L222.102 16.5905C219.006 11.3615 214.67 7.23689 209.119 4.22127L208.164 5.97872ZM220.74 16.2349L208.84 23.1349L209.843 24.8651L221.743 17.9651L220.74 16.2349ZM210.216 23.5159C208.389 20.2126 205.783 17.6434 202.418 15.8207L201.465 17.5793C204.5 19.2232 206.827 21.5207 208.466 24.4841L210.216 23.5159ZM202.432 15.8284C199.069 13.9368 195.297 13 191.141 13V15C194.985 15 198.414 15.8632 201.451 17.5716L202.432 15.8284ZM191.141 13C184.113 13 178.343 15.2143 173.929 19.6985L175.354 21.1015C179.34 17.0523 184.57 15 191.141 15V13ZM173.918 19.7098C169.585 24.2528 167.441 30.0443 167.441 37H169.441C169.441 30.4891 171.432 25.2139 175.365 21.0902L173.918 19.7098ZM167.441 37C167.441 43.8921 169.586 49.6492 173.918 54.1902L175.365 52.8098C171.43 48.6842 169.441 43.4413 169.441 37H167.441ZM173.929 54.2015C178.343 58.6857 184.113 60.9 191.141 60.9V58.9C184.57 58.9 179.34 56.8476 175.354 52.7985L173.929 54.2015ZM191.141 60.9C195.291 60.9 199.057 59.9995 202.418 58.1793L201.465 56.4207C198.426 58.0672 194.992 58.9 191.141 58.9V60.9ZM202.424 58.1758C205.846 56.2902 208.456 53.7237 210.22 50.4775L208.463 49.5225C206.894 52.4096 204.57 54.7098 201.459 56.4242L202.424 58.1758ZM208.84 50.8651L220.74 57.7651L221.743 56.0349L209.843 49.1349L208.84 50.8651ZM220.381 56.3905C217.476 61.2969 213.409 65.2076 208.156 68.1258L209.127 69.8742C214.674 66.7924 219.007 62.6364 222.102 57.4095L220.381 56.3905ZM208.159 68.1238C202.98 70.9726 197.313 72.4 191.141 72.4V74.4C197.636 74.4 203.636 72.8941 209.123 69.8762L208.159 68.1238ZM287.935 62.9L288.639 63.6105L288.642 63.6071L287.935 62.9ZM236.335 62.9L235.621 63.6004L235.626 63.6055L235.631 63.6105L236.335 62.9ZM236.335 11.2L235.628 10.4929L236.335 11.2ZM287.935 11.2L287.228 11.9071L287.231 11.9104L287.935 11.2ZM246.035 53.5L245.328 54.2071L246.035 53.5ZM278.235 53.5L278.942 54.2071L278.235 53.5ZM278.235 20.5L278.942 19.7929L278.235 20.5ZM246.035 20.5L245.328 19.7929L246.035 20.5ZM287.231 62.1896C280.356 69.0002 272.01 72.4 262.135 72.4V74.4C272.527 74.4 281.381 70.7998 288.639 63.6105L287.231 62.1896ZM262.135 72.4C252.26 72.4 243.914 69.0002 237.039 62.1896L235.631 63.6105C242.889 70.7998 251.744 74.4 262.135 74.4V72.4ZM237.049 62.1996C230.235 55.2561 226.835 46.8755 226.835 37H224.835C224.835 47.3912 228.435 56.2772 235.621 63.6004L237.049 62.1996ZM226.835 37C226.835 27.0562 230.236 18.7133 237.042 11.9071L235.628 10.4929C228.434 17.6867 224.835 26.5438 224.835 37H226.835ZM237.042 11.9071C243.918 5.03089 252.263 1.59999 262.135 1.59999V-0.400005C251.741 -0.400005 242.885 3.23577 235.628 10.4929L237.042 11.9071ZM262.135 1.59999C272.007 1.59999 280.352 5.03089 287.228 11.9071L288.642 10.4929C281.385 3.23577 272.53 -0.400005 262.135 -0.400005V1.59999ZM287.231 11.9104C294.103 18.7174 297.535 27.0592 297.535 37H299.535C299.535 26.5408 295.901 17.6826 288.639 10.4895L287.231 11.9104ZM297.535 37C297.535 46.9409 294.103 55.3181 287.228 62.1929L288.642 63.6071C295.901 56.3486 299.535 47.4591 299.535 37H297.535ZM245.328 54.2071C249.797 58.6757 255.424 60.9 262.135 60.9V58.9C255.913 58.9 250.807 56.8576 246.742 52.7929L245.328 54.2071ZM262.135 60.9C268.846 60.9 274.474 58.6757 278.942 54.2071L277.528 52.7929C273.463 56.8576 268.358 58.9 262.135 58.9V60.9ZM278.942 54.2071C283.481 49.6688 285.735 43.9062 285.735 37H283.735C283.735 43.4271 281.656 48.6645 277.528 52.7929L278.942 54.2071ZM285.735 37C285.735 30.0938 283.481 24.3312 278.942 19.7929L277.528 21.2071C281.656 25.3355 283.735 30.5729 283.735 37H285.735ZM278.942 19.7929C274.412 15.263 268.787 13 262.135 13V15C268.283 15 273.391 17.0704 277.528 21.2071L278.942 19.7929ZM262.135 13C255.483 13 249.858 15.263 245.328 19.7929L246.742 21.2071C250.879 17.0704 255.987 15 262.135 15V13ZM245.328 19.7929C240.79 24.3312 238.535 30.0938 238.535 37H240.535C240.535 30.5729 242.614 25.3355 246.742 21.2071L245.328 19.7929ZM238.535 37C238.535 43.9062 240.79 49.6688 245.328 54.2071L246.742 52.7929C242.614 48.6645 240.535 43.4271 240.535 37H238.535ZM312.195 68.8L312.739 67.9607L312.195 68.8ZM302.095 56.1L301.591 55.2367L300.866 55.6604L301.158 56.4473L302.095 56.1ZM313.895 49.2L314.829 48.8422L314.408 47.7421L313.391 48.3368L313.895 49.2ZM338.395 57.9L338.977 58.7137L338.395 57.9ZM337.895 46.8L337.358 47.6437L337.368 47.6495L337.377 47.6552L337.895 46.8ZM326.095 42.3L325.804 43.2567L325.814 43.2596L325.824 43.2624L326.095 42.3ZM311.595 35.8L310.999 36.6029L311.011 36.6116L311.023 36.62L311.595 35.8ZM311.695 6.3L312.33 7.07293L312.337 7.06735L312.343 7.06166L311.695 6.3ZM342.895 4.7L342.362 5.54579L342.895 4.7ZM352.995 16.3L353.495 17.1659L354.298 16.7025L353.897 15.8673L352.995 16.3ZM341.395 23L340.489 23.4229L340.951 24.4117L341.895 23.8659L341.395 23ZM321.295 16L321.9 16.7962L321.91 16.7886L321.92 16.7809L321.295 16ZM321.495 26.4L320.881 27.1894L320.901 27.2048L320.922 27.2192L321.495 26.4ZM332.095 30.8L332.412 29.8513L332.398 29.8469L332.385 29.8429L332.095 30.8ZM336.895 32.4L336.579 33.3487L336.59 33.3524L336.601 33.3558L336.895 32.4ZM341.395 34.1L341.019 35.0265L341.035 35.0329L341.051 35.0389L341.395 34.1ZM345.795 36.2L345.214 37.0137L345.243 37.0343L345.273 37.0528L345.795 36.2ZM352.395 42.4L351.512 42.8692L351.528 42.8983L351.545 42.9264L352.395 42.4ZM347.895 67.7L347.269 66.9202L347.895 67.7ZM329.595 72.4C322.879 72.4 317.278 70.9017 312.739 67.9607L311.652 69.6393C316.579 72.8317 322.578 74.4 329.595 74.4V72.4ZM312.739 67.9607C308.191 65.0139 304.96 60.9551 303.033 55.7527L301.158 56.4473C303.231 62.0449 306.733 66.4527 311.652 69.6393L312.739 67.9607ZM302.6 56.9632L314.4 50.0632L313.391 48.3368L301.591 55.2367L302.6 56.9632ZM312.962 49.5578C314.388 53.2816 316.53 56.1394 319.417 58.0578C322.3 59.9739 325.846 60.9 329.995 60.9V58.9C326.145 58.9 323.007 58.0428 320.524 56.3922C318.044 54.7439 316.136 52.2518 314.829 48.8422L312.962 49.5578ZM329.995 60.9C333.818 60.9 336.864 60.2229 338.977 58.7137L337.814 57.0863C336.194 58.2438 333.64 58.9 329.995 58.9V60.9ZM338.977 58.7137C341.102 57.1954 342.195 55.0942 342.195 52.5H340.195C340.195 54.4391 339.422 55.938 337.814 57.0863L338.977 58.7137ZM342.195 52.5C342.195 49.6657 340.897 47.4499 338.414 45.9448L337.377 47.6552C339.294 48.8168 340.195 50.4009 340.195 52.5H342.195ZM338.432 45.9563C336.098 44.471 332.04 42.9394 326.367 41.3376L325.824 43.2624C331.484 44.8606 335.293 46.329 337.358 47.6437L338.432 45.9563ZM326.386 41.3433C320.309 39.4938 315.584 37.365 312.168 34.98L311.023 36.62C314.673 39.1683 319.614 41.3729 325.804 43.2567L326.386 41.3433ZM312.191 34.9971C308.087 31.9502 305.995 27.473 305.995 21.4H303.995C303.995 27.9936 306.303 33.1165 310.999 36.6029L312.191 34.9971ZM305.995 21.4C305.995 15.2629 308.121 10.5277 312.33 7.07293L311.061 5.52707C306.336 9.40567 303.995 14.7371 303.995 21.4H305.995ZM312.343 7.06166C316.612 3.42997 321.809 1.59999 327.995 1.59999V-0.400005C321.381 -0.400005 315.712 1.57002 311.047 5.53834L312.343 7.06166ZM327.995 1.59999C333.425 1.59999 338.203 2.9225 342.362 5.54579L343.429 3.8542C338.921 1.01082 333.766 -0.400005 327.995 -0.400005V1.59999ZM342.362 5.54579C346.523 8.17051 349.768 11.8877 352.094 16.7327L353.897 15.8673C351.422 10.7123 347.934 6.69615 343.429 3.8542L342.362 5.54579ZM352.495 15.4341L340.895 22.1341L341.895 23.8659L353.495 17.1659L352.495 15.4341ZM342.301 22.5771C340.842 19.4501 338.919 17.0424 336.503 15.4199C334.082 13.7942 331.232 13 327.995 13V15C330.892 15 333.342 15.7058 335.388 17.0801C337.439 18.4576 339.148 20.5499 340.489 23.4229L342.301 22.5771ZM327.995 13C325.04 13 322.563 13.705 320.671 15.2191L321.92 16.7809C323.361 15.6283 325.351 15 327.995 15V13ZM320.69 15.2038C318.779 16.6567 317.795 18.6161 317.795 21H319.795C319.795 19.2506 320.479 17.8766 321.9 16.7962L320.69 15.2038ZM317.795 21C317.795 23.5215 318.848 25.608 320.881 27.1894L322.109 25.6106C320.542 24.392 319.795 22.8785 319.795 21H317.795ZM320.922 27.2192C323.062 28.7171 326.728 30.2204 331.806 31.7571L332.385 29.8429C327.33 28.313 323.929 26.8829 322.069 25.5808L320.922 27.2192ZM331.779 31.7487L336.579 33.3487L337.212 31.4513L332.412 29.8513L331.779 31.7487ZM336.601 33.3558C337.421 33.608 338.884 34.1591 341.019 35.0265L341.772 33.1735C339.64 32.3075 338.103 31.7253 337.189 31.4442L336.601 33.3558ZM341.051 35.0389C343.026 35.7629 344.391 36.4262 345.214 37.0137L346.377 35.3863C345.332 34.6405 343.765 33.9038 341.74 33.1611L341.051 35.0389ZM345.273 37.0528C348.468 39.0091 350.498 40.9605 351.512 42.8692L353.278 41.9308C352.026 39.5728 349.656 37.3909 346.317 35.3471L345.273 37.0528ZM351.545 42.9264C353.166 45.5451 353.995 48.6568 353.995 52.3H355.995C355.995 48.3432 355.091 44.8549 353.246 41.8736L351.545 42.9264ZM353.995 52.3C353.995 58.4863 351.749 63.3238 347.269 66.9202L348.521 68.4798C353.508 64.4762 355.995 59.0471 355.995 52.3H353.995ZM347.269 66.9202C342.751 70.5472 336.888 72.4 329.595 72.4V74.4C337.236 74.4 343.573 72.4528 348.521 68.4798L347.269 66.9202ZM417.808 2V0.999996H417.244L416.952 1.48284L417.808 2ZM432.008 2H433.008V0.999996H432.008V2ZM432.008 72V73H433.008V72H432.008ZM418.308 72H417.308V73H418.308V72ZM418.308 26.6H419.308V23.0211L417.453 26.0816L418.308 26.6ZM398.608 59.1V60.1H399.171L399.463 59.6184L398.608 59.1ZM397.008 59.1L396.153 59.6195L396.445 60.1H397.008V59.1ZM377.308 26.7L378.162 26.1805L376.308 23.1305V26.7H377.308ZM377.308 72V73H378.308V72H377.308ZM363.508 72H362.508V73H363.508V72ZM363.508 2V0.999996H362.508V2H363.508ZM377.708 2L378.563 1.48095L378.271 0.999996H377.708V2ZM397.808 35.1L396.953 35.619L397.81 37.0301L398.664 35.6172L397.808 35.1ZM417.808 3H432.008V0.999996H417.808V3ZM431.008 2V72H433.008V2H431.008ZM432.008 71H418.308V73H432.008V71ZM419.308 72V26.6H417.308V72H419.308ZM417.453 26.0816L397.753 58.5816L399.463 59.6184L419.163 27.1184L417.453 26.0816ZM398.608 58.1H397.008V60.1H398.608V58.1ZM397.862 58.5805L378.162 26.1805L376.453 27.2195L396.153 59.6195L397.862 58.5805ZM376.308 26.7V72H378.308V26.7H376.308ZM377.308 71H363.508V73H377.308V71ZM364.508 72V2H362.508V72H364.508ZM363.508 3H377.708V0.999996H363.508V3ZM376.853 2.51904L396.953 35.619L398.663 34.581L378.563 1.48095L376.853 2.51904ZM398.664 35.6172L418.664 2.51715L416.952 1.48284L396.952 34.5828L398.664 35.6172ZM503.951 62.9L504.655 63.6105L504.658 63.6071L503.951 62.9ZM452.351 62.9L451.637 63.6004L451.642 63.6055L451.647 63.6105L452.351 62.9ZM452.351 11.2L451.644 10.4929L452.351 11.2ZM503.951 11.2L503.244 11.9071L503.247 11.9104L503.951 11.2ZM462.051 53.5L461.344 54.2071L462.051 53.5ZM494.251 53.5L494.958 54.2071L494.251 53.5ZM494.251 20.5L494.958 19.7929L494.251 20.5ZM462.051 20.5L461.344 19.7929L462.051 20.5ZM503.247 62.1896C496.372 69.0002 488.026 72.4 478.151 72.4V74.4C488.542 74.4 497.397 70.7998 504.655 63.6105L503.247 62.1896ZM478.151 72.4C468.275 72.4 459.93 69.0002 453.055 62.1896L451.647 63.6105C458.905 70.7998 467.759 74.4 478.151 74.4V72.4ZM453.065 62.1996C446.251 55.2561 442.851 46.8755 442.851 37H440.851C440.851 47.3912 444.451 56.2772 451.637 63.6004L453.065 62.1996ZM442.851 37C442.851 27.0562 446.252 18.7133 453.058 11.9071L451.644 10.4929C444.45 17.6867 440.851 26.5438 440.851 37H442.851ZM453.058 11.9071C459.934 5.03089 468.279 1.59999 478.151 1.59999V-0.400005C467.756 -0.400005 458.901 3.23577 451.644 10.4929L453.058 11.9071ZM478.151 1.59999C488.023 1.59999 496.367 5.03089 503.244 11.9071L504.658 10.4929C497.401 3.23577 488.545 -0.400005 478.151 -0.400005V1.59999ZM503.247 11.9104C510.119 18.7174 513.551 27.0592 513.551 37H515.551C515.551 26.5408 511.916 17.6826 504.655 10.4895L503.247 11.9104ZM513.551 37C513.551 46.9409 510.118 55.3181 503.244 62.1929L504.658 63.6071C511.916 56.3486 515.551 47.4591 515.551 37H513.551ZM461.344 54.2071C465.812 58.6757 471.44 60.9 478.151 60.9V58.9C471.928 58.9 466.823 56.8576 462.758 52.7929L461.344 54.2071ZM478.151 60.9C484.862 60.9 490.489 58.6757 494.958 54.2071L493.544 52.7929C489.479 56.8576 484.373 58.9 478.151 58.9V60.9ZM494.958 54.2071C499.496 49.6688 501.751 43.9062 501.751 37H499.751C499.751 43.4271 497.672 48.6645 493.544 52.7929L494.958 54.2071ZM501.751 37C501.751 30.0938 499.496 24.3312 494.958 19.7929L493.544 21.2071C497.672 25.3355 499.751 30.5729 499.751 37H501.751ZM494.958 19.7929C490.428 15.263 484.803 13 478.151 13V15C484.299 15 489.407 17.0704 493.544 21.2071L494.958 19.7929ZM478.151 13C471.499 13 465.874 15.263 461.344 19.7929L462.758 21.2071C466.895 17.0704 472.003 15 478.151 15V13ZM461.344 19.7929C456.805 24.3312 454.551 30.0938 454.551 37H456.551C456.551 30.5729 458.63 25.3355 462.758 21.2071L461.344 19.7929ZM454.551 37C454.551 43.9062 456.805 49.6688 461.344 54.2071L462.758 52.7929C458.63 48.6645 456.551 43.4271 456.551 37H454.551ZM528.211 68.8L528.755 67.9607L528.211 68.8ZM518.111 56.1L517.606 55.2367L516.882 55.6604L517.173 56.4473L518.111 56.1ZM529.911 49.2L530.845 48.8422L530.423 47.7421L529.406 48.3368L529.911 49.2ZM554.411 57.9L554.992 58.7137L554.411 57.9ZM553.911 46.8L553.374 47.6437L553.383 47.6495L553.393 47.6552L553.911 46.8ZM542.111 42.3L541.82 43.2567L541.829 43.2596L541.839 43.2624L542.111 42.3ZM527.611 35.8L527.015 36.6029L527.027 36.6116L527.039 36.62L527.611 35.8ZM527.711 6.3L528.345 7.07293L528.352 7.06735L528.359 7.06166L527.711 6.3ZM558.911 4.7L558.377 5.54579L558.911 4.7ZM569.011 16.3L569.511 17.1659L570.313 16.7025L569.912 15.8673L569.011 16.3ZM557.411 23L556.505 23.4229L556.966 24.4117L557.911 23.8659L557.411 23ZM537.311 16L537.916 16.7962L537.926 16.7886L537.936 16.7809L537.311 16ZM537.511 26.4L536.897 27.1894L536.917 27.2048L536.938 27.2192L537.511 26.4ZM548.111 30.8L548.427 29.8513L548.414 29.8469L548.401 29.8429L548.111 30.8ZM552.911 32.4L552.595 33.3487L552.606 33.3524L552.617 33.3558L552.911 32.4ZM557.411 34.1L557.035 35.0265L557.051 35.0329L557.067 35.0389L557.411 34.1ZM561.811 36.2L561.23 37.0137L561.259 37.0343L561.289 37.0528L561.811 36.2ZM568.411 42.4L567.528 42.8692L567.543 42.8983L567.561 42.9264L568.411 42.4ZM563.911 67.7L563.285 66.9202L563.911 67.7ZM545.611 72.4C538.895 72.4 533.294 70.9017 528.755 67.9607L527.667 69.6393C532.595 72.8317 538.594 74.4 545.611 74.4V72.4ZM528.755 67.9607C524.206 65.0139 520.976 60.9551 519.049 55.7527L517.173 56.4473C519.246 62.0449 522.749 66.4527 527.667 69.6393L528.755 67.9607ZM518.616 56.9632L530.416 50.0632L529.406 48.3368L517.606 55.2367L518.616 56.9632ZM528.977 49.5578C530.404 53.2816 532.546 56.1394 535.432 58.0578C538.315 59.9739 541.862 60.9 546.011 60.9V58.9C542.16 58.9 539.023 58.0428 536.539 56.3922C534.059 54.7439 532.151 52.2518 530.845 48.8422L528.977 49.5578ZM546.011 60.9C549.833 60.9 552.879 60.2229 554.992 58.7137L553.83 57.0863C552.209 58.2438 549.655 58.9 546.011 58.9V60.9ZM554.992 58.7137C557.118 57.1954 558.211 55.0942 558.211 52.5H556.211C556.211 54.4391 555.437 55.938 553.83 57.0863L554.992 58.7137ZM558.211 52.5C558.211 49.6657 556.913 47.4499 554.429 45.9448L553.393 47.6552C555.309 48.8168 556.211 50.4009 556.211 52.5H558.211ZM554.448 45.9563C552.114 44.471 548.055 42.9394 542.383 41.3376L541.839 43.2624C547.5 44.8606 551.308 46.329 553.374 47.6437L554.448 45.9563ZM542.402 41.3433C536.325 39.4938 531.6 37.365 528.183 34.98L527.039 36.62C530.689 39.1683 535.63 41.3729 541.82 43.2567L542.402 41.3433ZM528.207 34.9971C524.103 31.9502 522.011 27.473 522.011 21.4H520.011C520.011 27.9936 522.319 33.1165 527.015 36.6029L528.207 34.9971ZM522.011 21.4C522.011 15.2629 524.137 10.5277 528.345 7.07293L527.076 5.52707C522.352 9.40567 520.011 14.7371 520.011 21.4H522.011ZM528.359 7.06166C532.628 3.42997 537.825 1.59999 544.011 1.59999V-0.400005C537.397 -0.400005 531.727 1.57002 527.063 5.53834L528.359 7.06166ZM544.011 1.59999C549.44 1.59999 554.219 2.9225 558.377 5.54579L559.444 3.8542C554.937 1.01082 549.782 -0.400005 544.011 -0.400005V1.59999ZM558.377 5.54579C562.539 8.17051 565.784 11.8877 568.109 16.7327L569.912 15.8673C567.438 10.7123 563.95 6.69615 559.444 3.8542L558.377 5.54579ZM568.511 15.4341L556.911 22.1341L557.911 23.8659L569.511 17.1659L568.511 15.4341ZM558.317 22.5771C556.858 19.4501 554.934 17.0424 552.518 15.4199C550.098 13.7942 547.248 13 544.011 13V15C546.908 15 549.357 15.7058 551.403 17.0801C553.454 18.4576 555.164 20.5499 556.505 23.4229L558.317 22.5771ZM544.011 13C541.055 13 538.579 13.705 536.686 15.2191L537.936 16.7809C539.376 15.6283 541.367 15 544.011 15V13ZM536.706 15.2038C534.794 16.6567 533.811 18.6161 533.811 21H535.811C535.811 19.2506 536.494 17.8766 537.916 16.7962L536.706 15.2038ZM533.811 21C533.811 23.5215 534.864 25.608 536.897 27.1894L538.125 25.6106C536.558 24.392 535.811 22.8785 535.811 21H533.811ZM536.938 27.2192C539.077 28.7171 542.743 30.2204 547.821 31.7571L548.401 29.8429C543.345 28.313 539.945 26.8829 538.084 25.5808L536.938 27.2192ZM547.795 31.7487L552.595 33.3487L553.227 31.4513L548.427 29.8513L547.795 31.7487ZM552.617 33.3558C553.437 33.608 554.9 34.1591 557.035 35.0265L557.787 33.1735C555.656 32.3075 554.119 31.7253 553.205 31.4442L552.617 33.3558ZM557.067 35.0389C559.041 35.7629 560.407 36.4262 561.23 37.0137L562.392 35.3863C561.348 34.6405 559.781 33.9038 557.755 33.1611L557.067 35.0389ZM561.289 37.0528C564.484 39.0091 566.514 40.9605 567.528 42.8692L569.294 41.9308C568.041 39.5728 565.671 37.3909 562.333 35.3471L561.289 37.0528ZM567.561 42.9264C569.182 45.5451 570.011 48.6568 570.011 52.3H572.011C572.011 48.3432 571.107 44.8549 569.261 41.8736L567.561 42.9264ZM570.011 52.3C570.011 58.4863 567.765 63.3238 563.285 66.9202L564.537 68.4798C569.524 64.4762 572.011 59.0471 572.011 52.3H570.011ZM563.285 66.9202C558.767 70.5472 552.904 72.4 545.611 72.4V74.4C553.251 74.4 559.588 72.4528 564.537 68.4798L563.285 66.9202Z" fill="white" fill-opacity="0.08"/>
</svg>
