<svg width="596" height="74" viewBox="0 0 596 74" fill="none" xmlns="http://www.w3.org/2000/svg">
<path d="M54.8 2H69V72H55.3V26.6L35.6 59.1H34L14.3 26.7V72H0.500001V2H14.7L34.8 35.1L54.8 2ZM108.143 72H82.043V2H95.843V25H108.143C114.81 25 120.476 27.2667 125.143 31.8C129.743 36.3333 132.043 41.9 132.043 48.5C132.043 55.1 129.743 60.6667 125.143 65.2C120.476 69.7333 114.81 72 108.143 72ZM152.143 72H138.443V2H152.143V72ZM95.843 37.9V59.1H108.143C111.076 59.1 113.51 58.1 115.443 56.1C117.376 54.1 118.343 51.5667 118.343 48.5C118.343 45.4333 117.376 42.9 115.443 40.9C113.51 38.9 111.076 37.9 108.143 37.9H95.843Z" fill="#5F4BD9"/>
<path d="M192.948 36L219.848 72H203.948L178.948 39.2V72H165.148V2H178.948V32.9L202.948 2H218.848L192.948 36ZM279.615 62.9C272.548 69.9 263.948 73.4 253.815 73.4C243.682 73.4 235.082 69.9 228.015 62.9C221.015 55.7667 217.515 47.1333 217.515 37C217.515 26.8 221.015 18.2 228.015 11.2C235.082 4.13333 243.682 0.599995 253.815 0.599995C263.948 0.599995 272.548 4.13333 279.615 11.2C286.682 18.2 290.215 26.8 290.215 37C290.215 47.2 286.682 55.8333 279.615 62.9ZM237.715 53.5C241.982 57.7667 247.348 59.9 253.815 59.9C260.282 59.9 265.648 57.7667 269.915 53.5C274.248 49.1667 276.415 43.6667 276.415 37C276.415 30.3333 274.248 24.8333 269.915 20.5C265.582 16.1667 260.215 14 253.815 14C247.415 14 242.048 16.1667 237.715 20.5C233.382 24.8333 231.215 30.3333 231.215 37C231.215 43.6667 233.382 49.1667 237.715 53.5ZM333.114 73.4C322.647 73.4 313.947 69.9 307.014 62.9C300.147 55.9667 296.714 47.3333 296.714 37C296.714 26.6 300.147 17.9667 307.014 11.1C313.947 4.1 322.647 0.599995 333.114 0.599995C339.447 0.599995 345.281 2.1 350.614 5.1C356.014 8.03333 360.214 12.0333 363.214 17.1L351.314 24C349.581 20.8667 347.114 18.4333 343.914 16.7C340.714 14.9 337.114 14 333.114 14C326.314 14 320.814 16.1333 316.614 20.4C312.481 24.7333 310.414 30.2667 310.414 37C310.414 43.6667 312.481 49.1667 316.614 53.5C320.814 57.7667 326.314 59.9 333.114 59.9C337.114 59.9 340.714 59.0333 343.914 57.3C347.181 55.5 349.647 53.0667 351.314 50L363.214 56.9C360.214 61.9667 356.014 66 350.614 69C345.281 71.9333 339.447 73.4 333.114 73.4ZM425.991 2H440.191V72H426.491V26.6L406.791 59.1H405.191L385.491 26.7V72H371.691V2H385.891L405.991 35.1L425.991 2ZM512.134 62.9C505.068 69.9 496.468 73.4 486.334 73.4C476.201 73.4 467.601 69.9 460.534 62.9C453.534 55.7667 450.034 47.1333 450.034 37C450.034 26.8 453.534 18.2 460.534 11.2C467.601 4.13333 476.201 0.599995 486.334 0.599995C496.468 0.599995 505.068 4.13333 512.134 11.2C519.201 18.2 522.734 26.8 522.734 37C522.734 47.2 519.201 55.8333 512.134 62.9ZM470.234 53.5C474.501 57.7667 479.868 59.9 486.334 59.9C492.801 59.9 498.168 57.7667 502.434 53.5C506.768 49.1667 508.934 43.6667 508.934 37C508.934 30.3333 506.768 24.8333 502.434 20.5C498.101 16.1667 492.734 14 486.334 14C479.934 14 474.568 16.1667 470.234 20.5C465.901 24.8333 463.734 30.3333 463.734 37C463.734 43.6667 465.901 49.1667 470.234 53.5ZM565.634 73.4C555.167 73.4 546.467 69.9 539.534 62.9C532.667 55.9667 529.234 47.3333 529.234 37C529.234 26.6 532.667 17.9667 539.534 11.1C546.467 4.1 555.167 0.599995 565.634 0.599995C571.967 0.599995 577.8 2.1 583.134 5.1C588.534 8.03333 592.734 12.0333 595.734 17.1L583.834 24C582.1 20.8667 579.634 18.4333 576.434 16.7C573.234 14.9 569.634 14 565.634 14C558.834 14 553.334 16.1333 549.134 20.4C545 24.7333 542.934 30.2667 542.934 37C542.934 43.6667 545 49.1667 549.134 53.5C553.334 57.7667 558.834 59.9 565.634 59.9C569.634 59.9 573.234 59.0333 576.434 57.3C579.7 55.5 582.167 53.0667 583.834 50L595.734 56.9C592.734 61.9667 588.534 66 583.134 69C577.8 71.9333 571.967 73.4 565.634 73.4Z" fill="white"/>
</svg>
