<svg width="152" height="209" viewBox="0 0 152 209" fill="none" xmlns="http://www.w3.org/2000/svg">
<g clip-path="url(#clip0_2_181)">
<path d="M140.217 42.4443L151.87 32.2354L141.475 43.5512L141.493 44.6045C139.551 57.633 136.151 65.8481 130.509 76.2012C120.104 68.4359 115.197 62.2514 107.32 51.6769C117.935 46.0621 125.967 43.5626 139.047 42.2082L140.217 42.4443Z" fill="url(#paint0_linear_2_181)"/>
<path d="M141.476 43.5512L140.219 42.4445L151.802 32.4184L141.476 43.5512Z" fill="url(#paint1_linear_2_181)"/>
<path d="M53.7361 103.665C68.3525 79.1069 79.1254 67.0764 107.324 51.6765C115.479 61.8892 120.657 67.1874 130.512 76.2009C115.093 102.692 102.388 112.947 76.8107 127.937C66.9179 118.593 61.7933 113.29 53.7361 103.665Z" fill="#5F4BD9"/>
<path d="M104.16 84.7894C109.221 86.7169 114.882 84.1887 116.803 79.1426C118.725 74.0965 116.18 68.4433 111.119 66.5157C106.058 64.5882 100.397 67.1164 98.4756 72.1625C96.5538 77.2086 99.0986 82.8619 104.16 84.7894Z" fill="#F1C6C6"/>
<path d="M105.409 81.4974C108.648 82.731 112.271 81.1129 113.501 77.8834C114.731 74.6539 113.102 71.0358 109.863 69.8022C106.624 68.5686 103.001 70.1866 101.771 73.4162C100.541 76.6457 102.17 80.2638 105.409 81.4974Z" fill="#253A47"/>
<path d="M59.6068 77.2357C64.847 76.981 67.6726 77.0301 72.5706 77.3605C64.5462 86.8586 60.6 92.2609 53.7378 103.667C46.1406 104.113 39.252 105.901 27.9726 108.501C40.3953 93.5861 47.3519 85.5483 59.6068 77.2357Z" fill="url(#paint2_linear_2_181)"/>
<path d="M103.685 121.852L104.587 109.014C94.5026 117.309 88.9837 120.229 77.319 127.713C76.3284 137.28 75.4037 142.411 73.3663 151.317C84.3044 144.152 90.8363 138.213 103.685 121.852Z" fill="url(#paint3_linear_2_181)"/>
<g filter="url(#filter0_i_2_181)">
<path d="M53.735 103.666C62.2117 113.18 67.3557 118.439 76.8793 127.755C74.8373 128.913 73.9729 129.468 70.0958 131.24L68.4719 129.994L66.3096 131.263C58.6928 125.969 55.6214 122.11 50.4759 114.979L51.3805 112.604L50.5151 111.019L53.735 103.666Z" fill="url(#paint4_linear_2_181)"/>
</g>
<g filter="url(#filter1_f_2_181)">
<path d="M6.80562 168.784C27.8292 136.497 39.5082 120.587 49.8178 116.618C50.6985 116.279 51.6695 116.624 52.251 117.368C55.9953 122.149 59.2234 125.315 64.0222 129.629C64.6778 130.218 64.9604 131.131 64.621 131.944C60.4877 141.848 41.5294 153.182 9.91289 172.015C7.82007 173.261 5.47621 170.826 6.80562 168.784Z" fill="url(#paint5_linear_2_181)"/>
</g>
<g filter="url(#filter2_f_2_181)">
<path d="M38.6944 142.591L47.8949 125.008L56.8048 134.409L38.6944 142.591Z" fill="white"/>
</g>
<path d="M67.1297 126.32C67.5199 126.799 68.7409 126.451 69.857 125.545C70.973 124.639 71.5614 123.517 71.1712 123.039C70.781 122.561 69.56 122.908 68.444 123.814C67.328 124.72 66.7396 125.842 67.1297 126.32Z" fill="white"/>
<g filter="url(#filter3_f_2_181)">
<path d="M50.5151 111.019C57.5043 119.614 62.0303 123.788 70.0958 131.24" stroke="#DA7F7F"/>
</g>
<path d="M51.6393 129.357C60.4526 117.376 81.3196 94.3379 90.4918 92.5561C90.1421 99.3125 66.8612 120.165 52.572 130.297C51.8914 130.78 51.1449 130.029 51.6393 129.357Z" fill="#5F4BD9"/>
<path d="M63.6907 114.99C72.6053 104.346 77.9424 99.9167 88.2422 92.9548L88.0344 93.1197C77.8292 101.219 72.489 105.457 63.6907 114.99Z" fill="#B2A6FF"/>
<path d="M106.089 80.0406C109.287 81.13 112.626 79.8198 113.547 77.1144C114.468 74.409 112.622 71.3327 109.425 70.2433C106.227 69.154 102.888 70.4641 101.967 73.1696C101.046 75.875 102.892 78.9513 106.089 80.0406Z" fill="url(#paint6_linear_2_181)"/>
<g filter="url(#filter4_f_2_181)">
<path d="M98.4231 71.7232C93.1733 81.6507 99.2979 87.0305 108.986 86.4175C101.421 84.7917 95.8665 81.4206 98.4231 71.7232Z" fill="#382994"/>
</g>
<g filter="url(#filter5_f_2_181)">
<path d="M55.4098 103.676C70.4886 76.7618 100.296 54.6029 105.014 54.9833C107.247 55.1633 110.264 59.3554 112.551 62.826C113.94 63.0843 114.972 63.8367 115.389 65.2118C116.736 69.6552 115.095 66.6871 112.551 62.826C105.416 61.4991 88.8568 73.2006 97.8179 80.4902C108.524 89.1994 64.2316 108.833 61.5068 110.811C58.7817 112.789 55.4098 103.676 55.4098 103.676Z" fill="#493AA9"/>
</g>
<path d="M55.1047 105.025L58.5987 109.076C80.8513 77.6595 97.7132 64.2696 131.254 46.1449C94.6094 60.4056 78.9423 74.2513 55.1047 105.025Z" fill="#F8F8F8" fill-opacity="0.11"/>
<g filter="url(#filter6_f_2_181)">
<path d="M88.1064 93.3205C90.1262 92.9066 90.093 93.3146 89.661 94.749" stroke="white"/>
</g>
<path d="M74.9178 125.754L68.9531 119.925C102.004 100.253 117.407 78.7013 138.471 44.291C124.256 84.5366 110.669 106.369 74.9178 125.754Z" fill="white" fill-opacity="0.07"/>
<g filter="url(#filter7_f_2_181)">
<path d="M129.688 60.1332C129.961 60.3092 131.181 58.9075 132.412 57.0024C133.643 55.0974 134.419 53.4103 134.146 53.2343C133.873 53.0583 132.654 54.46 131.423 56.3651C130.192 58.2701 129.415 59.9572 129.688 60.1332Z" fill="white"/>
</g>
<g filter="url(#filter8_f_2_181)">
<path d="M115.006 87.6654C115.638 88.0837 117.603 86.2339 119.394 83.5339C121.185 80.8338 122.125 78.3059 121.493 77.8876C120.861 77.4692 118.896 79.319 117.104 82.019C115.313 84.7191 114.373 87.247 115.006 87.6654Z" fill="white"/>
</g>
<g filter="url(#filter9_f_2_181)">
<path d="M51.3809 112.604L50.5457 114.797" stroke="#651616"/>
</g>
<g filter="url(#filter10_f_2_181)">
<path d="M68.4016 130.176L66.562 131.149" stroke="#B12525"/>
</g>
<g filter="url(#filter11_f_2_181)">
<path d="M89.9764 94.4526C79.0262 107.038 72.5424 112.808 59.9799 123.622C78.6463 110.143 85.4452 103.98 89.9764 94.4526Z" fill="#9D8DFF"/>
</g>
<g filter="url(#filter12_f_2_181)">
<path d="M85.8014 94.9553C72.8811 105.129 66.8383 112.449 54.9953 125.699C67.4305 114.87 73.6523 108.367 85.8014 94.9553Z" fill="#2C1C8D"/>
</g>
<path d="M130.315 76.0211L130.51 76.2008L131.251 74.8089C131.251 74.8089 116.817 60.8623 108.656 50.9291L107.506 51.7463C115.014 61.9547 120.338 66.8491 130.315 76.0211Z" fill="#1B1B1B" fill-opacity="0.54"/>
<path d="M69.8794 94.3316L88.564 92.66C80.3243 98.4985 75.2608 102.314 66.6178 111.712C64.2394 111.013 62.7632 110.52 58.9201 108.781L69.8794 94.3316Z" fill="black" fill-opacity="0.15"/>
</g>
<defs>
<filter id="filter0_i_2_181" x="50.4759" y="103.666" width="26.4034" height="31.5966" filterUnits="userSpaceOnUse" color-interpolation-filters="sRGB">
<feFlood flood-opacity="0" result="BackgroundImageFix"/>
<feBlend mode="normal" in="SourceGraphic" in2="BackgroundImageFix" result="shape"/>
<feColorMatrix in="SourceAlpha" type="matrix" values="0 0 0 0 0 0 0 0 0 0 0 0 0 0 0 0 0 0 127 0" result="hardAlpha"/>
<feOffset dy="4"/>
<feGaussianBlur stdDeviation="2"/>
<feComposite in2="hardAlpha" operator="arithmetic" k2="-1" k3="1"/>
<feColorMatrix type="matrix" values="0 0 0 0 0 0 0 0 0 0 0 0 0 0 0 0 0 0 0.25 0"/>
<feBlend mode="normal" in2="shape" result="effect1_innerShadow_2_181"/>
</filter>
<filter id="filter1_f_2_181" x="2.4173" y="112.488" width="66.3481" height="63.867" filterUnits="userSpaceOnUse" color-interpolation-filters="sRGB">
<feFlood flood-opacity="0" result="BackgroundImageFix"/>
<feBlend mode="normal" in="SourceGraphic" in2="BackgroundImageFix" result="shape"/>
<feGaussianBlur stdDeviation="2" result="effect1_foregroundBlur_2_181"/>
</filter>
<filter id="filter2_f_2_181" x="31.6944" y="118.008" width="32.1104" height="31.583" filterUnits="userSpaceOnUse" color-interpolation-filters="sRGB">
<feFlood flood-opacity="0" result="BackgroundImageFix"/>
<feBlend mode="normal" in="SourceGraphic" in2="BackgroundImageFix" result="shape"/>
<feGaussianBlur stdDeviation="3.5" result="effect1_foregroundBlur_2_181"/>
</filter>
<filter id="filter3_f_2_181" x="49.1272" y="109.703" width="22.308" height="22.9036" filterUnits="userSpaceOnUse" color-interpolation-filters="sRGB">
<feFlood flood-opacity="0" result="BackgroundImageFix"/>
<feBlend mode="normal" in="SourceGraphic" in2="BackgroundImageFix" result="shape"/>
<feGaussianBlur stdDeviation="0.5" result="effect1_foregroundBlur_2_181"/>
</filter>
<filter id="filter4_f_2_181" x="92.4962" y="67.7232" width="20.4899" height="22.7415" filterUnits="userSpaceOnUse" color-interpolation-filters="sRGB">
<feFlood flood-opacity="0" result="BackgroundImageFix"/>
<feBlend mode="normal" in="SourceGraphic" in2="BackgroundImageFix" result="shape"/>
<feGaussianBlur stdDeviation="2" result="effect1_foregroundBlur_2_181"/>
</filter>
<filter id="filter5_f_2_181" x="40.4098" y="39.9784" width="90.4616" height="86.1136" filterUnits="userSpaceOnUse" color-interpolation-filters="sRGB">
<feFlood flood-opacity="0" result="BackgroundImageFix"/>
<feBlend mode="normal" in="SourceGraphic" in2="BackgroundImageFix" result="shape"/>
<feGaussianBlur stdDeviation="7.5" result="effect1_foregroundBlur_2_181"/>
</filter>
<filter id="filter6_f_2_181" x="85.006" y="89.6673" width="8.39301" height="8.22592" filterUnits="userSpaceOnUse" color-interpolation-filters="sRGB">
<feFlood flood-opacity="0" result="BackgroundImageFix"/>
<feBlend mode="normal" in="SourceGraphic" in2="BackgroundImageFix" result="shape"/>
<feGaussianBlur stdDeviation="1.5" result="effect1_foregroundBlur_2_181"/>
</filter>
<filter id="filter7_f_2_181" x="127.634" y="51.2194" width="8.56714" height="10.9287" filterUnits="userSpaceOnUse" color-interpolation-filters="sRGB">
<feFlood flood-opacity="0" result="BackgroundImageFix"/>
<feBlend mode="normal" in="SourceGraphic" in2="BackgroundImageFix" result="shape"/>
<feGaussianBlur stdDeviation="1" result="effect1_foregroundBlur_2_181"/>
</filter>
<filter id="filter8_f_2_181" x="112.809" y="75.8285" width="10.8813" height="13.8959" filterUnits="userSpaceOnUse" color-interpolation-filters="sRGB">
<feFlood flood-opacity="0" result="BackgroundImageFix"/>
<feBlend mode="normal" in="SourceGraphic" in2="BackgroundImageFix" result="shape"/>
<feGaussianBlur stdDeviation="1" result="effect1_foregroundBlur_2_181"/>
</filter>
<filter id="filter9_f_2_181" x="49.0784" y="111.426" width="3.76968" height="4.54882" filterUnits="userSpaceOnUse" color-interpolation-filters="sRGB">
<feFlood flood-opacity="0" result="BackgroundImageFix"/>
<feBlend mode="normal" in="SourceGraphic" in2="BackgroundImageFix" result="shape"/>
<feGaussianBlur stdDeviation="0.5" result="effect1_foregroundBlur_2_181"/>
</filter>
<filter id="filter10_f_2_181" x="65.3282" y="128.734" width="4.30722" height="3.85704" filterUnits="userSpaceOnUse" color-interpolation-filters="sRGB">
<feFlood flood-opacity="0" result="BackgroundImageFix"/>
<feBlend mode="normal" in="SourceGraphic" in2="BackgroundImageFix" result="shape"/>
<feGaussianBlur stdDeviation="0.5" result="effect1_foregroundBlur_2_181"/>
</filter>
<filter id="filter11_f_2_181" x="57.9799" y="92.4526" width="33.9964" height="33.169" filterUnits="userSpaceOnUse" color-interpolation-filters="sRGB">
<feFlood flood-opacity="0" result="BackgroundImageFix"/>
<feBlend mode="normal" in="SourceGraphic" in2="BackgroundImageFix" result="shape"/>
<feGaussianBlur stdDeviation="1" result="effect1_foregroundBlur_2_181"/>
</filter>
<filter id="filter12_f_2_181" x="50.9953" y="90.9553" width="38.8062" height="38.7439" filterUnits="userSpaceOnUse" color-interpolation-filters="sRGB">
<feFlood flood-opacity="0" result="BackgroundImageFix"/>
<feBlend mode="normal" in="SourceGraphic" in2="BackgroundImageFix" result="shape"/>
<feGaussianBlur stdDeviation="2" result="effect1_foregroundBlur_2_181"/>
</filter>
<linearGradient id="paint0_linear_2_181" x1="113.693" y1="47.6175" x2="134.087" y2="64.0095" gradientUnits="userSpaceOnUse">
<stop stop-color="#141618"/>
<stop offset="0.307292" stop-color="#222223"/>
<stop offset="0.557292" stop-color="#616262"/>
<stop offset="0.693951" stop-color="#BBBBBA"/>
<stop offset="1" stop-color="#2A2A2B"/>
</linearGradient>
<linearGradient id="paint1_linear_2_181" x1="143.374" y1="39.6705" x2="144.149" y2="40.3865" gradientUnits="userSpaceOnUse">
<stop stop-color="#494A4A"/>
<stop offset="1" stop-color="#999999"/>
</linearGradient>
<linearGradient id="paint2_linear_2_181" x1="66.1073" y1="86.6167" x2="53.6098" y2="84.1716" gradientUnits="userSpaceOnUse">
<stop stop-color="#33267E"/>
<stop offset="1" stop-color="#5F4BD9"/>
</linearGradient>
<linearGradient id="paint3_linear_2_181" x1="93.795" y1="116.412" x2="99.2539" y2="123.534" gradientUnits="userSpaceOnUse">
<stop stop-color="#33267E"/>
<stop offset="1" stop-color="#5F4BD9"/>
</linearGradient>
<linearGradient id="paint4_linear_2_181" x1="51.3503" y1="108.826" x2="75.7928" y2="130.545" gradientUnits="userSpaceOnUse">
<stop stop-color="#1D1D1D"/>
<stop offset="0.348958" stop-color="#4C4C4C"/>
<stop offset="0.755208" stop-color="#878786"/>
<stop offset="1" stop-color="#353533"/>
</linearGradient>
<linearGradient id="paint5_linear_2_181" x1="3.10548" y1="172.683" x2="56.2535" y2="120.869" gradientUnits="userSpaceOnUse">
<stop stop-color="#FEF727"/>
<stop offset="0.578125" stop-color="#FFF574"/>
<stop offset="0.833333" stop-color="#FFF586"/>
<stop offset="1" stop-color="#FF5C20"/>
</linearGradient>
<linearGradient id="paint6_linear_2_181" x1="115.718" y1="77.854" x2="109.352" y2="85.9127" gradientUnits="userSpaceOnUse">
<stop stop-color="#D9D9D9"/>
<stop offset="0.536458" stop-color="#D9D9D9" stop-opacity="0"/>
</linearGradient>
<clipPath id="clip0_2_181">
<rect width="90.573" height="188.892" fill="white" transform="translate(67.2289) rotate(20.8493)"/>
</clipPath>
</defs>
</svg>
